<svg xmlns="http://www.w3.org/2000/svg" xmlns:xlink="http://www.w3.org/1999/xlink" width="200" zoomAndPan="magnify" viewBox="0 0 150 149.999998" height="200" preserveAspectRatio="xMidYMid meet" version="1.0"><defs><g/><clipPath id="8451da506b"><path d="M 0 0.320312 L 150 0.320312 L 150 150 L 0 150 Z M 0 0.320312 " clip-rule="nonzero"/></clipPath><clipPath id="5f2698a495"><path d="M 0.320312 2 L 3 2 L 3 6.640625 L 0.320312 6.640625 Z M 0.320312 2 " clip-rule="nonzero"/></clipPath><clipPath id="27c70df940"><rect x="0" width="12" y="0" height="7"/></clipPath></defs><path fill="#560216" d="M 88.679688 96.859375 L 61.023438 96.859375 C 59.433594 96.859375 58.121094 95.550781 58.121094 93.960938 L 58.121094 71.382812 C 58.121094 70.667969 58.714844 70.105469 59.402344 70.105469 L 90.269531 70.105469 C 90.988281 70.105469 91.550781 70.699219 91.550781 71.382812 L 91.550781 93.960938 C 91.550781 95.582031 90.269531 96.859375 88.679688 96.859375 Z M 60.679688 72.664062 L 60.679688 93.960938 C 60.679688 94.113281 60.835938 94.269531 60.992188 94.269531 L 88.648438 94.269531 C 88.804688 94.269531 88.960938 94.113281 88.960938 93.960938 L 88.960938 72.664062 Z M 60.679688 72.664062 " fill-opacity="1" fill-rule="nonzero"/><path fill="#560216" d="M 59.402344 72.664062 C 59.277344 72.664062 59.152344 72.632812 59.027344 72.601562 C 58.496094 72.445312 58.121094 71.945312 58.121094 71.382812 L 58.121094 57.476562 C 58.121094 57.226562 58.183594 57.039062 58.277344 56.820312 L 61.242188 51.769531 C 61.488281 51.394531 61.894531 51.117188 62.363281 51.117188 L 74.992188 51.117188 C 75.710938 51.117188 76.269531 51.707031 76.269531 52.394531 C 76.269531 53.113281 75.679688 53.671875 74.992188 53.671875 L 63.113281 53.671875 L 60.710938 57.789062 L 60.710938 67.082031 L 62.363281 64.585938 C 63.207031 63.339844 64.609375 62.558594 66.136719 62.558594 L 74.898438 62.558594 C 75.617188 62.558594 76.175781 63.152344 76.175781 63.835938 C 76.175781 64.554688 75.585938 65.117188 74.898438 65.117188 L 66.105469 65.117188 C 65.449219 65.117188 64.859375 65.429688 64.515625 65.988281 L 60.492188 72.101562 C 60.242188 72.476562 59.835938 72.664062 59.402344 72.664062 Z M 59.402344 72.664062 " fill-opacity="1" fill-rule="nonzero"/><path fill="#560216" d="M 74.835938 80.644531 L 60.773438 80.644531 C 60.054688 80.644531 59.496094 80.050781 59.496094 79.367188 L 59.496094 71.757812 C 59.496094 71.039062 60.085938 70.480469 60.773438 70.480469 C 61.488281 70.480469 62.050781 71.070312 62.050781 71.757812 L 62.050781 78.085938 L 74.835938 78.085938 C 75.554688 78.085938 76.113281 78.679688 76.113281 79.367188 C 76.113281 80.050781 75.554688 80.644531 74.835938 80.644531 Z M 74.835938 80.644531 " fill-opacity="1" fill-rule="nonzero"/><path fill="#560216" d="M 74.835938 84.792969 L 69.660156 84.792969 C 68.941406 84.792969 68.382812 84.199219 68.382812 83.511719 C 68.382812 82.828125 68.972656 82.234375 69.660156 82.234375 L 74.835938 82.234375 C 75.554688 82.234375 76.113281 82.828125 76.113281 83.511719 C 76.113281 84.199219 75.554688 84.792969 74.835938 84.792969 Z M 74.835938 84.792969 " fill-opacity="1" fill-rule="nonzero"/><path fill="#560216" d="M 74.835938 88.90625 L 69.660156 88.90625 C 68.941406 88.90625 68.382812 88.316406 68.382812 87.628906 C 68.382812 86.945312 68.972656 86.351562 69.660156 86.351562 L 74.835938 86.351562 C 75.554688 86.351562 76.113281 86.945312 76.113281 87.628906 C 76.113281 88.316406 75.554688 88.90625 74.835938 88.90625 Z M 74.835938 88.90625 " fill-opacity="1" fill-rule="nonzero"/><path fill="#560216" d="M 74.835938 93.023438 L 59.402344 93.023438 C 58.683594 93.023438 58.121094 92.429688 58.121094 91.746094 C 58.121094 91.058594 58.714844 90.46875 59.402344 90.46875 L 74.835938 90.46875 C 75.554688 90.46875 76.113281 91.058594 76.113281 91.746094 C 76.113281 92.429688 75.554688 93.023438 74.835938 93.023438 Z M 74.835938 93.023438 " fill-opacity="1" fill-rule="nonzero"/><path fill="#560216" d="M 65.074219 93.023438 C 64.984375 93.023438 64.921875 93.023438 64.796875 92.992188 C 64.109375 92.835938 63.671875 92.152344 63.796875 91.464844 C 64.328125 88.90625 63.546875 86.476562 61.894531 85.632812 C 61.117188 85.226562 60.210938 85.257812 59.621094 85.382812 C 58.902344 85.507812 58.246094 85.074219 58.121094 84.355469 C 57.996094 83.636719 58.433594 82.984375 59.152344 82.859375 C 60.585938 82.578125 61.957031 82.765625 63.082031 83.359375 C 65.761719 84.761719 67.101562 88.285156 66.324219 92.027344 C 66.199219 92.617188 65.667969 93.023438 65.074219 93.023438 Z M 65.074219 93.023438 " fill-opacity="1" fill-rule="nonzero"/><path fill="#560216" d="M 74.742188 58.753906 L 59.402344 58.753906 C 58.683594 58.753906 58.121094 58.164062 58.121094 57.476562 C 58.121094 56.789062 58.714844 56.199219 59.402344 56.199219 L 74.742188 56.199219 C 75.460938 56.199219 76.019531 56.789062 76.019531 57.476562 C 76.019531 58.164062 75.429688 58.753906 74.742188 58.753906 Z M 74.742188 58.753906 " fill-opacity="1" fill-rule="nonzero"/><path fill="#560216" d="M 66.449219 99.167969 L 63.796875 99.167969 C 62.269531 99.167969 61.054688 97.917969 61.054688 96.421875 L 61.054688 95.582031 C 61.054688 94.863281 61.644531 94.300781 62.332031 94.300781 L 67.914062 94.300781 C 68.628906 94.300781 69.191406 94.894531 69.191406 95.582031 L 69.191406 96.421875 C 69.191406 97.917969 67.976562 99.167969 66.449219 99.167969 Z M 66.449219 99.167969 " fill-opacity="1" fill-rule="nonzero"/><path fill="#560216" d="M 57.5625 78.085938 C 56.84375 78.085938 56.28125 77.496094 56.28125 76.808594 L 56.28125 71.757812 C 56.28125 71.039062 56.875 70.480469 57.5625 70.480469 C 58.246094 70.480469 58.839844 71.070312 58.839844 71.757812 L 58.839844 76.808594 C 58.839844 77.496094 58.277344 78.085938 57.5625 78.085938 Z M 57.5625 78.085938 " fill-opacity="1" fill-rule="nonzero"/><path fill="#560216" d="M 88.679688 96.859375 L 61.023438 96.859375 C 59.433594 96.859375 58.121094 95.550781 58.121094 93.960938 L 58.121094 71.382812 C 58.121094 70.667969 58.714844 70.105469 59.402344 70.105469 L 90.269531 70.105469 C 90.988281 70.105469 91.550781 70.699219 91.550781 71.382812 L 91.550781 93.960938 C 91.550781 95.582031 90.269531 96.859375 88.679688 96.859375 Z M 60.679688 72.664062 L 60.679688 93.960938 C 60.679688 94.113281 60.835938 94.269531 60.992188 94.269531 L 88.648438 94.269531 C 88.804688 94.269531 88.960938 94.113281 88.960938 93.960938 L 88.960938 72.664062 Z M 60.679688 72.664062 " fill-opacity="1" fill-rule="nonzero"/><path fill="#560216" d="M 90.269531 72.664062 C 89.835938 72.664062 89.429688 72.445312 89.210938 72.070312 L 85.21875 65.988281 C 84.84375 65.460938 84.253906 65.117188 83.628906 65.117188 L 74.835938 65.117188 C 74.117188 65.117188 73.558594 64.523438 73.558594 63.835938 C 73.558594 63.152344 74.148438 62.558594 74.835938 62.558594 L 83.597656 62.558594 C 85.125 62.558594 86.527344 63.308594 87.371094 64.585938 L 89.023438 67.082031 L 89.023438 57.789062 L 86.621094 53.671875 L 74.742188 53.671875 C 74.023438 53.671875 73.464844 53.082031 73.464844 52.394531 C 73.464844 51.707031 74.054688 51.117188 74.742188 51.117188 L 87.371094 51.117188 C 87.808594 51.117188 88.242188 51.363281 88.492188 51.769531 L 91.457031 56.820312 C 91.550781 57.007812 91.613281 57.257812 91.613281 57.476562 L 91.613281 71.382812 C 91.613281 71.976562 91.238281 72.445312 90.707031 72.601562 C 90.519531 72.664062 90.394531 72.664062 90.269531 72.664062 Z M 90.269531 72.664062 " fill-opacity="1" fill-rule="nonzero"/><path fill="#560216" d="M 88.898438 80.644531 L 74.835938 80.644531 C 74.117188 80.644531 73.558594 80.050781 73.558594 79.367188 C 73.558594 78.679688 74.148438 78.085938 74.835938 78.085938 L 87.621094 78.085938 L 87.621094 71.757812 C 87.621094 71.039062 88.210938 70.480469 88.898438 70.480469 C 89.585938 70.480469 90.175781 71.070312 90.175781 71.757812 L 90.175781 79.367188 C 90.175781 80.082031 89.617188 80.644531 88.898438 80.644531 Z M 88.898438 80.644531 " fill-opacity="1" fill-rule="nonzero"/><path fill="#560216" d="M 80.011719 84.792969 L 74.835938 84.792969 C 74.117188 84.792969 73.558594 84.199219 73.558594 83.511719 C 73.558594 82.828125 74.148438 82.234375 74.835938 82.234375 L 80.011719 82.234375 C 80.730469 82.234375 81.289062 82.828125 81.289062 83.511719 C 81.289062 84.199219 80.730469 84.792969 80.011719 84.792969 Z M 80.011719 84.792969 " fill-opacity="1" fill-rule="nonzero"/><path fill="#560216" d="M 80.011719 88.90625 L 74.835938 88.90625 C 74.117188 88.90625 73.558594 88.316406 73.558594 87.628906 C 73.558594 86.945312 74.148438 86.351562 74.835938 86.351562 L 80.011719 86.351562 C 80.730469 86.351562 81.289062 86.945312 81.289062 87.628906 C 81.289062 88.316406 80.730469 88.90625 80.011719 88.90625 Z M 80.011719 88.90625 " fill-opacity="1" fill-rule="nonzero"/><path fill="#560216" d="M 90.269531 93.023438 L 74.835938 93.023438 C 74.117188 93.023438 73.558594 92.429688 73.558594 91.746094 C 73.558594 91.058594 74.148438 90.46875 74.835938 90.46875 L 90.269531 90.46875 C 90.988281 90.46875 91.550781 91.058594 91.550781 91.746094 C 91.550781 92.429688 90.988281 93.023438 90.269531 93.023438 Z M 90.269531 93.023438 " fill-opacity="1" fill-rule="nonzero"/><path fill="#560216" d="M 84.597656 93.023438 C 84.003906 93.023438 83.472656 92.617188 83.347656 92.027344 C 82.570312 88.316406 83.878906 84.761719 86.589844 83.390625 C 87.714844 82.796875 89.085938 82.640625 90.519531 82.890625 C 91.238281 83.015625 91.675781 83.667969 91.550781 84.386719 C 91.425781 85.105469 90.769531 85.539062 90.050781 85.414062 C 89.460938 85.320312 88.554688 85.257812 87.777344 85.664062 C 86.125 86.507812 85.34375 88.96875 85.875 91.496094 C 86.03125 92.183594 85.5625 92.867188 84.875 93.023438 C 84.78125 93.023438 84.6875 93.023438 84.597656 93.023438 Z M 84.597656 93.023438 " fill-opacity="1" fill-rule="nonzero"/><path fill="#560216" d="M 90.269531 58.753906 L 74.929688 58.753906 C 74.210938 58.753906 73.652344 58.164062 73.652344 57.476562 C 73.652344 56.789062 74.242188 56.199219 74.929688 56.199219 L 90.269531 56.199219 C 90.988281 56.199219 91.550781 56.789062 91.550781 57.476562 C 91.550781 58.164062 90.988281 58.753906 90.269531 58.753906 Z M 90.269531 58.753906 " fill-opacity="1" fill-rule="nonzero"/><path fill="#560216" d="M 85.875 99.167969 L 83.222656 99.167969 C 81.695312 99.167969 80.480469 97.917969 80.480469 96.421875 L 80.480469 95.582031 C 80.480469 94.863281 81.070312 94.300781 81.757812 94.300781 L 87.308594 94.300781 C 88.027344 94.300781 88.585938 94.894531 88.585938 95.582031 L 88.585938 96.421875 C 88.617188 97.917969 87.402344 99.167969 85.875 99.167969 Z M 85.875 99.167969 " fill-opacity="1" fill-rule="nonzero"/><path fill="#560216" d="M 92.109375 78.085938 C 91.394531 78.085938 90.832031 77.496094 90.832031 76.808594 L 90.832031 71.757812 C 90.832031 71.039062 91.425781 70.480469 92.109375 70.480469 C 92.796875 70.480469 93.390625 71.070312 93.390625 71.757812 L 93.390625 76.808594 C 93.390625 77.496094 92.828125 78.085938 92.109375 78.085938 Z M 92.109375 78.085938 " fill-opacity="1" fill-rule="nonzero"/><path fill="#560216" d="M 123.542969 97.109375 L 100.125 97.109375 C 98.535156 97.109375 97.222656 95.800781 97.222656 94.207031 L 97.222656 74.316406 C 97.222656 73.597656 97.816406 73.035156 98.503906 73.035156 L 125.132812 73.035156 C 125.847656 73.035156 126.410156 73.628906 126.410156 74.316406 L 126.410156 94.207031 C 126.441406 95.832031 125.132812 97.109375 123.542969 97.109375 Z M 99.8125 75.59375 L 99.8125 94.207031 C 99.8125 94.363281 99.96875 94.519531 100.125 94.519531 L 123.542969 94.519531 C 123.699219 94.519531 123.851562 94.363281 123.851562 94.207031 L 123.851562 75.59375 Z M 99.8125 75.59375 " fill-opacity="1" fill-rule="nonzero"/><path fill="#560216" d="M 98.535156 75.59375 C 98.410156 75.59375 98.285156 75.5625 98.160156 75.5625 C 97.597656 75.40625 97.253906 74.90625 97.253906 74.316406 L 97.253906 61.9375 C 97.253906 61.71875 97.316406 61.5 97.410156 61.28125 L 99.96875 56.789062 C 100.21875 56.386719 100.625 56.136719 101.089844 56.136719 L 111.941406 56.136719 C 112.660156 56.136719 113.21875 56.726562 113.21875 57.414062 C 113.21875 58.132812 112.628906 58.691406 111.941406 58.691406 L 101.839844 58.691406 L 99.84375 62.214844 L 99.84375 69.855469 L 100.902344 68.171875 C 101.652344 66.988281 102.898438 66.300781 104.300781 66.300781 L 111.847656 66.300781 C 112.566406 66.300781 113.128906 66.894531 113.128906 67.578125 C 113.128906 68.296875 112.535156 68.859375 111.847656 68.859375 L 104.300781 68.859375 C 103.804688 68.859375 103.335938 69.109375 103.054688 69.542969 L 99.625 74.9375 C 99.375 75.40625 98.9375 75.59375 98.535156 75.59375 Z M 98.535156 75.59375 " fill-opacity="1" fill-rule="nonzero"/><path fill="#560216" d="M 111.816406 82.703125 L 99.6875 82.703125 C 98.96875 82.703125 98.410156 82.109375 98.410156 81.425781 L 98.410156 74.65625 C 98.410156 73.941406 99 73.378906 99.6875 73.378906 C 100.375 73.378906 100.964844 73.972656 100.964844 74.65625 L 100.964844 80.144531 L 111.816406 80.144531 C 112.535156 80.144531 113.097656 80.738281 113.097656 81.425781 C 113.097656 82.109375 112.535156 82.703125 111.816406 82.703125 Z M 111.816406 82.703125 " fill-opacity="1" fill-rule="nonzero"/><path fill="#560216" d="M 111.816406 86.351562 L 107.359375 86.351562 C 106.640625 86.351562 106.078125 85.757812 106.078125 85.074219 C 106.078125 84.386719 106.671875 83.792969 107.359375 83.792969 L 111.816406 83.792969 C 112.535156 83.792969 113.097656 84.386719 113.097656 85.074219 C 113.097656 85.757812 112.535156 86.351562 111.816406 86.351562 Z M 111.816406 86.351562 " fill-opacity="1" fill-rule="nonzero"/><path fill="#560216" d="M 111.816406 90.03125 L 107.359375 90.03125 C 106.640625 90.03125 106.078125 89.4375 106.078125 88.753906 C 106.078125 88.066406 106.671875 87.472656 107.359375 87.472656 L 111.816406 87.472656 C 112.535156 87.472656 113.097656 88.066406 113.097656 88.753906 C 113.097656 89.4375 112.535156 90.03125 111.816406 90.03125 Z M 111.816406 90.03125 " fill-opacity="1" fill-rule="nonzero"/><path fill="#560216" d="M 111.816406 93.710938 L 98.535156 93.710938 C 97.816406 93.710938 97.253906 93.117188 97.253906 92.429688 C 97.253906 91.746094 97.847656 91.152344 98.535156 91.152344 L 111.847656 91.152344 C 112.566406 91.152344 113.128906 91.746094 113.128906 92.429688 C 113.128906 93.117188 112.535156 93.710938 111.816406 93.710938 Z M 111.816406 93.710938 " fill-opacity="1" fill-rule="nonzero"/><path fill="#560216" d="M 103.429688 93.710938 C 103.335938 93.710938 103.273438 93.710938 103.179688 93.679688 C 102.492188 93.523438 102.058594 92.867188 102.183594 92.152344 C 102.617188 89.9375 101.996094 87.816406 100.625 87.097656 C 99.96875 86.757812 99.28125 86.789062 98.785156 86.914062 C 98.066406 87.035156 97.410156 86.601562 97.285156 85.882812 C 97.160156 85.167969 97.597656 84.511719 98.316406 84.386719 C 99.59375 84.136719 100.808594 84.292969 101.839844 84.824219 C 104.210938 86.070312 105.425781 89.3125 104.707031 92.648438 C 104.550781 93.273438 104.023438 93.710938 103.429688 93.710938 Z M 103.429688 93.710938 " fill-opacity="1" fill-rule="nonzero"/><path fill="#560216" d="M 111.753906 63.214844 L 98.535156 63.214844 C 97.816406 63.214844 97.253906 62.621094 97.253906 61.9375 C 97.253906 61.21875 97.847656 60.65625 98.535156 60.65625 L 111.753906 60.65625 C 112.472656 60.65625 113.035156 61.25 113.035156 61.9375 C 113.035156 62.652344 112.441406 63.214844 111.753906 63.214844 Z M 111.753906 63.214844 " fill-opacity="1" fill-rule="nonzero"/><path fill="#560216" d="M 104.394531 99.167969 L 102.523438 99.167969 C 100.996094 99.167969 99.78125 97.917969 99.78125 96.421875 L 99.78125 95.832031 C 99.78125 95.113281 100.375 94.550781 101.058594 94.550781 L 105.863281 94.550781 C 106.578125 94.550781 107.140625 95.144531 107.140625 95.832031 L 107.140625 96.421875 C 107.140625 97.917969 105.925781 99.167969 104.394531 99.167969 Z M 104.394531 99.167969 " fill-opacity="1" fill-rule="nonzero"/><path fill="#560216" d="M 96.945312 80.425781 C 96.226562 80.425781 95.664062 79.835938 95.664062 79.148438 L 95.664062 74.65625 C 95.664062 73.941406 96.257812 73.378906 96.945312 73.378906 C 97.628906 73.378906 98.222656 73.972656 98.222656 74.65625 L 98.222656 79.148438 C 98.222656 79.835938 97.660156 80.425781 96.945312 80.425781 Z M 96.945312 80.425781 " fill-opacity="1" fill-rule="nonzero"/><path fill="#560216" d="M 123.542969 97.109375 L 100.125 97.109375 C 98.535156 97.109375 97.222656 95.800781 97.222656 94.207031 L 97.222656 74.316406 C 97.222656 73.597656 97.816406 73.035156 98.503906 73.035156 L 125.132812 73.035156 C 125.847656 73.035156 126.410156 73.628906 126.410156 74.316406 L 126.410156 94.207031 C 126.441406 95.832031 125.132812 97.109375 123.542969 97.109375 Z M 99.8125 75.59375 L 99.8125 94.207031 C 99.8125 94.363281 99.96875 94.519531 100.125 94.519531 L 123.542969 94.519531 C 123.699219 94.519531 123.851562 94.363281 123.851562 94.207031 L 123.851562 75.59375 Z M 99.8125 75.59375 " fill-opacity="1" fill-rule="nonzero"/><path fill="#560216" d="M 125.132812 75.59375 C 124.695312 75.59375 124.289062 75.375 124.039062 75 L 120.609375 69.605469 C 120.328125 69.167969 119.894531 68.921875 119.363281 68.921875 L 111.816406 68.921875 C 111.101562 68.921875 110.539062 68.328125 110.539062 67.640625 C 110.539062 66.925781 111.132812 66.363281 111.816406 66.363281 L 119.363281 66.363281 C 120.734375 66.363281 122.015625 67.082031 122.761719 68.234375 L 123.851562 69.917969 L 123.851562 62.277344 L 121.859375 58.753906 L 111.753906 58.753906 C 111.039062 58.753906 110.476562 58.164062 110.476562 57.476562 C 110.476562 56.789062 111.070312 56.199219 111.753906 56.199219 L 122.605469 56.199219 C 123.074219 56.199219 123.511719 56.449219 123.730469 56.851562 L 126.285156 61.34375 C 126.378906 61.53125 126.441406 61.75 126.441406 62 L 126.441406 74.378906 C 126.441406 74.96875 126.066406 75.4375 125.539062 75.625 C 125.382812 75.59375 125.257812 75.59375 125.132812 75.59375 Z M 125.132812 75.59375 " fill-opacity="1" fill-rule="nonzero"/><path fill="#560216" d="M 123.945312 82.703125 L 111.816406 82.703125 C 111.101562 82.703125 110.539062 82.109375 110.539062 81.425781 C 110.539062 80.738281 111.132812 80.144531 111.816406 80.144531 L 122.667969 80.144531 L 122.667969 74.65625 C 122.667969 73.941406 123.261719 73.378906 123.945312 73.378906 C 124.632812 73.378906 125.226562 73.972656 125.226562 74.65625 L 125.226562 81.425781 C 125.226562 82.140625 124.664062 82.703125 123.945312 82.703125 Z M 123.945312 82.703125 " fill-opacity="1" fill-rule="nonzero"/><path fill="#560216" d="M 116.308594 86.351562 L 111.847656 86.351562 C 111.132812 86.351562 110.570312 85.757812 110.570312 85.074219 C 110.570312 84.386719 111.164062 83.792969 111.847656 83.792969 L 116.308594 83.792969 C 117.023438 83.792969 117.585938 84.386719 117.585938 85.074219 C 117.585938 85.757812 116.992188 86.351562 116.308594 86.351562 Z M 116.308594 86.351562 " fill-opacity="1" fill-rule="nonzero"/><path fill="#560216" d="M 116.308594 90.03125 L 111.847656 90.03125 C 111.132812 90.03125 110.570312 89.4375 110.570312 88.753906 C 110.570312 88.066406 111.164062 87.472656 111.847656 87.472656 L 116.308594 87.472656 C 117.023438 87.472656 117.585938 88.066406 117.585938 88.753906 C 117.585938 89.4375 116.992188 90.03125 116.308594 90.03125 Z M 116.308594 90.03125 " fill-opacity="1" fill-rule="nonzero"/><path fill="#560216" d="M 125.132812 93.710938 L 111.816406 93.710938 C 111.101562 93.710938 110.539062 93.117188 110.539062 92.429688 C 110.539062 91.746094 111.132812 91.152344 111.816406 91.152344 L 125.132812 91.152344 C 125.847656 91.152344 126.410156 91.746094 126.410156 92.429688 C 126.410156 93.117188 125.847656 93.710938 125.132812 93.710938 Z M 125.132812 93.710938 " fill-opacity="1" fill-rule="nonzero"/><path fill="#560216" d="M 120.238281 93.710938 C 119.644531 93.710938 119.113281 93.273438 118.988281 92.679688 C 118.304688 89.3125 119.488281 86.101562 121.859375 84.855469 C 122.886719 84.324219 124.101562 84.136719 125.382812 84.417969 C 126.097656 84.542969 126.535156 85.226562 126.410156 85.914062 C 126.285156 86.632812 125.601562 87.066406 124.914062 86.945312 C 124.414062 86.851562 123.730469 86.820312 123.074219 87.128906 C 121.734375 87.847656 121.078125 89.96875 121.515625 92.183594 C 121.671875 92.867188 121.203125 93.554688 120.515625 93.710938 C 120.421875 93.710938 120.328125 93.710938 120.238281 93.710938 Z M 120.238281 93.710938 " fill-opacity="1" fill-rule="nonzero"/><path fill="#560216" d="M 125.132812 63.214844 L 111.941406 63.214844 C 111.226562 63.214844 110.664062 62.621094 110.664062 61.9375 C 110.664062 61.21875 111.257812 60.65625 111.941406 60.65625 L 125.164062 60.65625 C 125.878906 60.65625 126.441406 61.25 126.441406 61.9375 C 126.441406 62.652344 125.847656 63.214844 125.132812 63.214844 Z M 125.132812 63.214844 " fill-opacity="1" fill-rule="nonzero"/><path fill="#560216" d="M 121.140625 99.167969 L 119.269531 99.167969 C 117.742188 99.167969 116.527344 97.917969 116.527344 96.421875 L 116.527344 95.832031 C 116.527344 95.113281 117.117188 94.550781 117.804688 94.550781 L 122.605469 94.550781 C 123.324219 94.550781 123.882812 95.144531 123.882812 95.832031 L 123.882812 96.421875 C 123.882812 97.917969 122.636719 99.167969 121.140625 99.167969 Z M 121.140625 99.167969 " fill-opacity="1" fill-rule="nonzero"/><path fill="#560216" d="M 126.722656 80.425781 C 126.003906 80.425781 125.445312 79.835938 125.445312 79.148438 L 125.445312 74.65625 C 125.445312 73.941406 126.035156 73.378906 126.722656 73.378906 C 127.40625 73.378906 128 73.972656 128 74.65625 L 128 79.148438 C 128 79.835938 127.4375 80.425781 126.722656 80.425781 Z M 126.722656 80.425781 " fill-opacity="1" fill-rule="nonzero"/><path fill="#560216" d="M 49.546875 97.109375 L 26.128906 97.109375 C 24.539062 97.109375 23.230469 95.800781 23.230469 94.207031 L 23.230469 74.316406 C 23.230469 73.597656 23.824219 73.035156 24.507812 73.035156 L 51.136719 73.035156 C 51.855469 73.035156 52.417969 73.628906 52.417969 74.316406 L 52.417969 94.207031 C 52.417969 95.832031 51.136719 97.109375 49.546875 97.109375 Z M 25.820312 75.59375 L 25.820312 94.207031 C 25.820312 94.363281 25.972656 94.519531 26.128906 94.519531 L 49.546875 94.519531 C 49.703125 94.519531 49.859375 94.363281 49.859375 94.207031 L 49.859375 75.59375 Z M 25.820312 75.59375 " fill-opacity="1" fill-rule="nonzero"/><path fill="#560216" d="M 51.136719 75.59375 C 50.703125 75.59375 50.296875 75.375 50.046875 75 L 46.617188 69.605469 C 46.335938 69.167969 45.898438 68.921875 45.371094 68.921875 L 37.855469 68.921875 C 37.136719 68.921875 36.574219 68.328125 36.574219 67.640625 C 36.574219 66.925781 37.167969 66.363281 37.855469 66.363281 L 45.402344 66.363281 C 46.773438 66.363281 48.050781 67.082031 48.800781 68.234375 L 49.890625 69.917969 L 49.890625 62.277344 L 47.894531 58.753906 L 37.792969 58.753906 C 37.074219 58.753906 36.515625 58.164062 36.515625 57.476562 C 36.515625 56.789062 37.105469 56.199219 37.792969 56.199219 L 48.644531 56.199219 C 49.109375 56.199219 49.546875 56.449219 49.765625 56.851562 L 52.324219 61.34375 C 52.417969 61.53125 52.480469 61.75 52.480469 62 L 52.480469 74.378906 C 52.480469 74.96875 52.105469 75.4375 51.574219 75.625 C 51.386719 75.59375 51.261719 75.59375 51.136719 75.59375 Z M 51.136719 75.59375 " fill-opacity="1" fill-rule="nonzero"/><path fill="#560216" d="M 49.984375 82.703125 L 37.855469 82.703125 C 37.136719 82.703125 36.574219 82.109375 36.574219 81.425781 C 36.574219 80.738281 37.167969 80.144531 37.855469 80.144531 L 48.707031 80.144531 L 48.707031 74.65625 C 48.707031 73.941406 49.296875 73.378906 49.984375 73.378906 C 50.703125 73.378906 51.261719 73.972656 51.261719 74.65625 L 51.261719 81.425781 C 51.261719 82.140625 50.671875 82.703125 49.984375 82.703125 Z M 49.984375 82.703125 " fill-opacity="1" fill-rule="nonzero"/><path fill="#560216" d="M 42.3125 86.351562 L 37.855469 86.351562 C 37.136719 86.351562 36.574219 85.757812 36.574219 85.074219 C 36.574219 84.386719 37.167969 83.792969 37.855469 83.792969 L 42.3125 83.792969 C 43.03125 83.792969 43.59375 84.386719 43.59375 85.074219 C 43.59375 85.757812 43.03125 86.351562 42.3125 86.351562 Z M 42.3125 86.351562 " fill-opacity="1" fill-rule="nonzero"/><path fill="#560216" d="M 42.3125 90.03125 L 37.855469 90.03125 C 37.136719 90.03125 36.574219 89.4375 36.574219 88.753906 C 36.574219 88.066406 37.167969 87.472656 37.855469 87.472656 L 42.3125 87.472656 C 43.03125 87.472656 43.59375 88.066406 43.59375 88.753906 C 43.59375 89.4375 43.03125 90.03125 42.3125 90.03125 Z M 42.3125 90.03125 " fill-opacity="1" fill-rule="nonzero"/><path fill="#560216" d="M 51.136719 93.710938 L 37.824219 93.710938 C 37.105469 93.710938 36.542969 93.117188 36.542969 92.429688 C 36.542969 91.746094 37.136719 91.152344 37.824219 91.152344 L 51.136719 91.152344 C 51.855469 91.152344 52.417969 91.746094 52.417969 92.429688 C 52.417969 93.117188 51.855469 93.710938 51.136719 93.710938 Z M 51.136719 93.710938 " fill-opacity="1" fill-rule="nonzero"/><path fill="#560216" d="M 46.242188 93.710938 C 45.648438 93.710938 45.121094 93.273438 44.996094 92.679688 C 44.308594 89.3125 45.492188 86.101562 47.863281 84.855469 C 48.894531 84.324219 50.109375 84.136719 51.386719 84.417969 C 52.105469 84.542969 52.542969 85.226562 52.417969 85.914062 C 52.292969 86.632812 51.605469 87.066406 50.917969 86.945312 C 50.421875 86.851562 49.734375 86.820312 49.078125 87.128906 C 47.738281 87.847656 47.085938 89.96875 47.519531 92.183594 C 47.675781 92.867188 47.210938 93.554688 46.523438 93.710938 C 46.429688 93.710938 46.335938 93.710938 46.242188 93.710938 Z M 46.242188 93.710938 " fill-opacity="1" fill-rule="nonzero"/><path fill="#560216" d="M 51.136719 63.214844 L 37.917969 63.214844 C 37.199219 63.214844 36.636719 62.621094 36.636719 61.9375 C 36.636719 61.21875 37.230469 60.65625 37.917969 60.65625 L 51.136719 60.65625 C 51.855469 60.65625 52.417969 61.25 52.417969 61.9375 C 52.417969 62.652344 51.855469 63.214844 51.136719 63.214844 Z M 51.136719 63.214844 " fill-opacity="1" fill-rule="nonzero"/><path fill="#560216" d="M 47.148438 99.167969 L 45.277344 99.167969 C 43.746094 99.167969 42.53125 97.917969 42.53125 96.421875 L 42.53125 95.832031 C 42.53125 95.113281 43.125 94.550781 43.808594 94.550781 L 48.613281 94.550781 C 49.328125 94.550781 49.890625 95.144531 49.890625 95.832031 L 49.890625 96.421875 C 49.890625 97.917969 48.675781 99.167969 47.148438 99.167969 Z M 47.148438 99.167969 " fill-opacity="1" fill-rule="nonzero"/><path fill="#560216" d="M 52.726562 80.425781 C 52.011719 80.425781 51.449219 79.835938 51.449219 79.148438 L 51.449219 74.65625 C 51.449219 73.941406 52.042969 73.378906 52.726562 73.378906 C 53.445312 73.378906 54.007812 73.972656 54.007812 74.65625 L 54.007812 79.148438 C 54.007812 79.835938 53.445312 80.425781 52.726562 80.425781 Z M 52.726562 80.425781 " fill-opacity="1" fill-rule="nonzero"/><path fill="#560216" d="M 49.546875 97.109375 L 26.128906 97.109375 C 24.539062 97.109375 23.230469 95.800781 23.230469 94.207031 L 23.230469 74.316406 C 23.230469 73.597656 23.824219 73.035156 24.507812 73.035156 L 51.136719 73.035156 C 51.855469 73.035156 52.417969 73.628906 52.417969 74.316406 L 52.417969 94.207031 C 52.417969 95.832031 51.136719 97.109375 49.546875 97.109375 Z M 25.820312 75.59375 L 25.820312 94.207031 C 25.820312 94.363281 25.972656 94.519531 26.128906 94.519531 L 49.546875 94.519531 C 49.703125 94.519531 49.859375 94.363281 49.859375 94.207031 L 49.859375 75.59375 Z M 25.820312 75.59375 " fill-opacity="1" fill-rule="nonzero"/><path fill="#560216" d="M 24.539062 75.59375 C 24.414062 75.59375 24.289062 75.5625 24.164062 75.5625 C 23.605469 75.40625 23.261719 74.90625 23.261719 74.316406 L 23.261719 61.9375 C 23.261719 61.71875 23.324219 61.5 23.417969 61.28125 L 25.972656 56.789062 C 26.222656 56.386719 26.628906 56.136719 27.097656 56.136719 L 37.949219 56.136719 C 38.664062 56.136719 39.226562 56.726562 39.226562 57.414062 C 39.226562 58.132812 38.632812 58.691406 37.949219 58.691406 L 27.84375 58.691406 L 25.847656 62.214844 L 25.847656 69.855469 L 26.910156 68.171875 C 27.65625 66.988281 28.90625 66.300781 30.308594 66.300781 L 37.886719 66.300781 C 38.601562 66.300781 39.164062 66.894531 39.164062 67.578125 C 39.164062 68.296875 38.570312 68.859375 37.886719 68.859375 L 30.339844 68.859375 C 29.839844 68.859375 29.375 69.109375 29.09375 69.542969 L 25.664062 74.9375 C 25.382812 75.40625 24.976562 75.59375 24.539062 75.59375 Z M 24.539062 75.59375 " fill-opacity="1" fill-rule="nonzero"/><path fill="#560216" d="M 37.855469 82.703125 L 25.726562 82.703125 C 25.007812 82.703125 24.445312 82.109375 24.445312 81.425781 L 24.445312 74.65625 C 24.445312 73.941406 25.039062 73.378906 25.726562 73.378906 C 26.441406 73.378906 27.003906 73.972656 27.003906 74.65625 L 27.003906 80.144531 L 37.855469 80.144531 C 38.570312 80.144531 39.132812 80.738281 39.132812 81.425781 C 39.132812 82.109375 38.539062 82.703125 37.855469 82.703125 Z M 37.855469 82.703125 " fill-opacity="1" fill-rule="nonzero"/><path fill="#560216" d="M 37.855469 86.351562 L 33.363281 86.351562 C 32.648438 86.351562 32.085938 85.757812 32.085938 85.074219 C 32.085938 84.386719 32.679688 83.792969 33.363281 83.792969 L 37.824219 83.792969 C 38.539062 83.792969 39.101562 84.386719 39.101562 85.074219 C 39.101562 85.757812 38.539062 86.351562 37.855469 86.351562 Z M 37.855469 86.351562 " fill-opacity="1" fill-rule="nonzero"/><path fill="#560216" d="M 37.855469 90.03125 L 33.363281 90.03125 C 32.648438 90.03125 32.085938 89.4375 32.085938 88.753906 C 32.085938 88.066406 32.679688 87.472656 33.363281 87.472656 L 37.824219 87.472656 C 38.539062 87.472656 39.101562 88.066406 39.101562 88.753906 C 39.101562 89.4375 38.539062 90.03125 37.855469 90.03125 Z M 37.855469 90.03125 " fill-opacity="1" fill-rule="nonzero"/><path fill="#560216" d="M 37.855469 93.710938 L 24.539062 93.710938 C 23.824219 93.710938 23.261719 93.117188 23.261719 92.429688 C 23.261719 91.746094 23.855469 91.152344 24.539062 91.152344 L 37.855469 91.152344 C 38.570312 91.152344 39.132812 91.746094 39.132812 92.429688 C 39.132812 93.117188 38.539062 93.710938 37.855469 93.710938 Z M 37.855469 93.710938 " fill-opacity="1" fill-rule="nonzero"/><path fill="#560216" d="M 29.433594 93.710938 C 29.34375 93.710938 29.28125 93.710938 29.1875 93.679688 C 28.5 93.523438 28.0625 92.867188 28.1875 92.152344 C 28.625 89.9375 28 87.816406 26.628906 87.097656 C 25.972656 86.757812 25.289062 86.789062 24.789062 86.914062 C 24.101562 87.035156 23.417969 86.601562 23.292969 85.882812 C 23.167969 85.167969 23.605469 84.511719 24.320312 84.386719 C 25.601562 84.136719 26.816406 84.292969 27.84375 84.824219 C 30.214844 86.070312 31.429688 89.3125 30.714844 92.648438 C 30.558594 93.273438 30.027344 93.710938 29.433594 93.710938 Z M 29.433594 93.710938 " fill-opacity="1" fill-rule="nonzero"/><path fill="#560216" d="M 37.761719 63.214844 L 24.539062 63.214844 C 23.824219 63.214844 23.261719 62.621094 23.261719 61.9375 C 23.261719 61.21875 23.855469 60.65625 24.539062 60.65625 L 37.730469 60.65625 C 38.445312 60.65625 39.007812 61.25 39.007812 61.9375 C 39.007812 62.652344 38.476562 63.214844 37.761719 63.214844 Z M 37.761719 63.214844 " fill-opacity="1" fill-rule="nonzero"/><path fill="#560216" d="M 30.402344 99.167969 L 28.53125 99.167969 C 27.003906 99.167969 25.789062 97.917969 25.789062 96.421875 L 25.789062 95.832031 C 25.789062 95.113281 26.378906 94.550781 27.066406 94.550781 L 31.867188 94.550781 C 32.585938 94.550781 33.144531 95.144531 33.144531 95.832031 L 33.144531 96.421875 C 33.175781 97.917969 31.929688 99.167969 30.402344 99.167969 Z M 30.402344 99.167969 " fill-opacity="1" fill-rule="nonzero"/><path fill="#560216" d="M 22.949219 80.425781 C 22.234375 80.425781 21.671875 79.835938 21.671875 79.148438 L 21.671875 74.65625 C 21.671875 73.941406 22.265625 73.378906 22.949219 73.378906 C 23.636719 73.378906 24.226562 73.972656 24.226562 74.65625 L 24.226562 79.148438 C 24.257812 79.835938 23.667969 80.425781 22.949219 80.425781 Z M 22.949219 80.425781 " fill-opacity="1" fill-rule="nonzero"/><g clip-path="url(#8451da506b)"><path fill="#560216" d="M 74.835938 149.992188 C 64.734375 149.992188 54.941406 148.027344 45.710938 144.097656 C 36.792969 140.328125 28.8125 134.933594 21.921875 128.070312 C 15.0625 121.210938 9.667969 113.199219 5.894531 104.28125 C 1.964844 95.050781 0 85.257812 0 75.15625 C 0 65.054688 1.964844 55.261719 5.894531 46.03125 C 9.667969 37.113281 15.0625 29.101562 21.921875 22.242188 C 28.78125 15.382812 36.792969 9.988281 45.710938 6.214844 C 54.941406 2.285156 64.734375 0.320312 74.835938 0.320312 C 84.9375 0.320312 94.730469 2.285156 103.960938 6.214844 C 112.878906 9.988281 120.890625 15.382812 127.75 22.242188 C 134.609375 29.101562 140.003906 37.113281 143.777344 46.03125 C 147.675781 55.261719 149.671875 65.054688 149.671875 75.15625 C 149.671875 85.257812 147.707031 95.050781 143.777344 104.28125 C 140.003906 113.199219 134.609375 121.179688 127.75 128.070312 C 120.890625 134.933594 112.878906 140.328125 103.960938 144.097656 C 94.730469 148.027344 84.9375 149.992188 74.835938 149.992188 Z M 74.835938 2.691406 C 34.859375 2.691406 2.371094 35.183594 2.371094 75.15625 C 2.371094 115.132812 34.890625 147.621094 74.835938 147.621094 C 114.8125 147.621094 147.300781 115.101562 147.300781 75.15625 C 147.300781 35.183594 114.8125 2.691406 74.835938 2.691406 Z M 74.835938 2.691406 " fill-opacity="1" fill-rule="nonzero"/></g><g transform="matrix(1, 0, 0, 1, 4, 134)"><g clip-path="url(#27c70df940)"><g clip-path="url(#5f2698a495)"><g fill="#ffffff" fill-opacity="1"><g transform="translate(0.447735, 5.097158)"><g><path d="M 2.4375 -2.40625 L 2.4375 -2.078125 L 2.0625 -1.96875 C 2.132812 -1.863281 2.171875 -1.742188 2.171875 -1.609375 C 2.171875 -1.347656 2.078125 -1.144531 1.890625 -1 C 1.710938 -0.863281 1.460938 -0.796875 1.140625 -0.796875 L 1.03125 -0.796875 L 0.921875 -0.8125 C 0.859375 -0.757812 0.828125 -0.703125 0.828125 -0.640625 C 0.828125 -0.546875 0.945312 -0.5 1.1875 -0.5 L 1.59375 -0.5 C 1.863281 -0.5 2.066406 -0.441406 2.203125 -0.328125 C 2.335938 -0.210938 2.40625 -0.046875 2.40625 0.171875 C 2.40625 0.453125 2.285156 0.671875 2.046875 0.828125 C 1.816406 0.984375 1.484375 1.0625 1.046875 1.0625 C 0.710938 1.0625 0.457031 1 0.28125 0.875 C 0.101562 0.757812 0.015625 0.597656 0.015625 0.390625 C 0.015625 0.242188 0.0546875 0.117188 0.140625 0.015625 C 0.234375 -0.078125 0.367188 -0.144531 0.546875 -0.1875 C 0.484375 -0.207031 0.425781 -0.25 0.375 -0.3125 C 0.320312 -0.382812 0.296875 -0.457031 0.296875 -0.53125 C 0.296875 -0.625 0.320312 -0.695312 0.375 -0.75 C 0.425781 -0.8125 0.503906 -0.875 0.609375 -0.9375 C 0.484375 -0.988281 0.378906 -1.070312 0.296875 -1.1875 C 0.222656 -1.3125 0.1875 -1.457031 0.1875 -1.625 C 0.1875 -1.882812 0.269531 -2.085938 0.4375 -2.234375 C 0.613281 -2.378906 0.863281 -2.453125 1.1875 -2.453125 C 1.25 -2.453125 1.328125 -2.441406 1.421875 -2.421875 C 1.515625 -2.410156 1.570312 -2.40625 1.59375 -2.40625 Z M 0.578125 0.34375 C 0.578125 0.425781 0.617188 0.492188 0.703125 0.546875 C 0.796875 0.597656 0.921875 0.625 1.078125 0.625 C 1.304688 0.625 1.488281 0.59375 1.625 0.53125 C 1.757812 0.46875 1.828125 0.378906 1.828125 0.265625 C 1.828125 0.179688 1.785156 0.117188 1.703125 0.078125 C 1.628906 0.046875 1.507812 0.03125 1.34375 0.03125 L 1 0.03125 C 0.882812 0.03125 0.785156 0.0546875 0.703125 0.109375 C 0.617188 0.171875 0.578125 0.25 0.578125 0.34375 Z M 0.8125 -1.625 C 0.8125 -1.488281 0.84375 -1.378906 0.90625 -1.296875 C 0.96875 -1.222656 1.0625 -1.1875 1.1875 -1.1875 C 1.300781 -1.1875 1.382812 -1.222656 1.4375 -1.296875 C 1.5 -1.378906 1.53125 -1.488281 1.53125 -1.625 C 1.53125 -1.90625 1.414062 -2.046875 1.1875 -2.046875 C 0.9375 -2.046875 0.8125 -1.90625 0.8125 -1.625 Z M 0.8125 -1.625 "/></g></g></g></g><g fill="#ffffff" fill-opacity="1"><g transform="translate(2.932669, 5.097158)"><g><path d="M 0.3125 -3.03125 C 0.3125 -3.238281 0.429688 -3.34375 0.671875 -3.34375 C 0.910156 -3.34375 1.03125 -3.238281 1.03125 -3.03125 C 1.03125 -2.925781 1 -2.84375 0.9375 -2.78125 C 0.882812 -2.726562 0.796875 -2.703125 0.671875 -2.703125 C 0.429688 -2.703125 0.3125 -2.8125 0.3125 -3.03125 Z M 1 0 L 0.34375 0 L 0.34375 -2.40625 L 1 -2.40625 Z M 1 0 "/></g></g></g><g fill="#ffffff" fill-opacity="1"><g transform="translate(4.275007, 5.097158)"><g><path d="M 0.859375 -1.203125 C 0.859375 -0.960938 0.898438 -0.78125 0.984375 -0.65625 C 1.066406 -0.539062 1.191406 -0.484375 1.359375 -0.484375 C 1.535156 -0.484375 1.660156 -0.539062 1.734375 -0.65625 C 1.816406 -0.78125 1.859375 -0.960938 1.859375 -1.203125 C 1.859375 -1.441406 1.816406 -1.617188 1.734375 -1.734375 C 1.660156 -1.859375 1.535156 -1.921875 1.359375 -1.921875 C 1.179688 -1.921875 1.050781 -1.859375 0.96875 -1.734375 C 0.894531 -1.617188 0.859375 -1.441406 0.859375 -1.203125 Z M 2.53125 -1.203125 C 2.53125 -0.816406 2.425781 -0.507812 2.21875 -0.28125 C 2.007812 -0.0625 1.722656 0.046875 1.359375 0.046875 C 1.128906 0.046875 0.925781 -0.00390625 0.75 -0.109375 C 0.570312 -0.210938 0.4375 -0.359375 0.34375 -0.546875 C 0.25 -0.734375 0.203125 -0.953125 0.203125 -1.203125 C 0.203125 -1.597656 0.300781 -1.90625 0.5 -2.125 C 0.707031 -2.34375 1 -2.453125 1.375 -2.453125 C 1.601562 -2.453125 1.804688 -2.398438 1.984375 -2.296875 C 2.160156 -2.203125 2.296875 -2.054688 2.390625 -1.859375 C 2.484375 -1.671875 2.53125 -1.453125 2.53125 -1.203125 Z M 2.53125 -1.203125 "/></g></g></g><g fill="#ffffff" fill-opacity="1"><g transform="translate(6.998338, 5.097158)"><g><path d="M 0.3125 -3.03125 C 0.3125 -3.238281 0.429688 -3.34375 0.671875 -3.34375 C 0.910156 -3.34375 1.03125 -3.238281 1.03125 -3.03125 C 1.03125 -2.925781 1 -2.84375 0.9375 -2.78125 C 0.882812 -2.726562 0.796875 -2.703125 0.671875 -2.703125 C 0.429688 -2.703125 0.3125 -2.8125 0.3125 -3.03125 Z M 1 0 L 0.34375 0 L 0.34375 -2.40625 L 1 -2.40625 Z M 1 0 "/></g></g></g><g fill="#ffffff" fill-opacity="1"><g transform="translate(8.340676, 5.097158)"><g><path d="M 1.875 0 L 1.75 -0.328125 L 1.734375 -0.328125 C 1.617188 -0.191406 1.503906 -0.09375 1.390625 -0.03125 C 1.273438 0.0195312 1.117188 0.046875 0.921875 0.046875 C 0.691406 0.046875 0.507812 -0.0195312 0.375 -0.15625 C 0.25 -0.289062 0.1875 -0.476562 0.1875 -0.71875 C 0.1875 -0.976562 0.273438 -1.164062 0.453125 -1.28125 C 0.628906 -1.40625 0.898438 -1.472656 1.265625 -1.484375 L 1.671875 -1.5 L 1.671875 -1.609375 C 1.671875 -1.847656 1.546875 -1.96875 1.296875 -1.96875 C 1.109375 -1.96875 0.882812 -1.910156 0.625 -1.796875 L 0.40625 -2.234375 C 0.6875 -2.378906 0.992188 -2.453125 1.328125 -2.453125 C 1.648438 -2.453125 1.894531 -2.378906 2.0625 -2.234375 C 2.238281 -2.097656 2.328125 -1.890625 2.328125 -1.609375 L 2.328125 0 Z M 1.671875 -1.109375 L 1.421875 -1.109375 C 1.234375 -1.097656 1.09375 -1.0625 1 -1 C 0.90625 -0.9375 0.859375 -0.84375 0.859375 -0.71875 C 0.859375 -0.53125 0.960938 -0.4375 1.171875 -0.4375 C 1.328125 -0.4375 1.445312 -0.476562 1.53125 -0.5625 C 1.625 -0.65625 1.671875 -0.773438 1.671875 -0.921875 Z M 1.671875 -1.109375 "/></g></g></g></g></g></svg>