<svg xmlns="http://www.w3.org/2000/svg" xmlns:xlink="http://www.w3.org/1999/xlink" width="200" zoomAndPan="magnify" viewBox="0 0 150 149.999998" height="200" preserveAspectRatio="xMidYMid meet" version="1.0"><defs><g/><clipPath id="c2a29a5854"><path d="M 8.035156 7.910156 L 142 7.910156 L 142 142.140625 L 8.035156 142.140625 Z M 8.035156 7.910156 " clip-rule="nonzero"/></clipPath><clipPath id="c90642176b"><path d="M 0.398438 4 L 5 4 L 5 11 L 0.398438 11 Z M 0.398438 4 " clip-rule="nonzero"/></clipPath><clipPath id="0fa7b2d64b"><path d="M 20 5 L 25.839844 5 L 25.839844 11 L 20 11 Z M 20 5 " clip-rule="nonzero"/></clipPath><clipPath id="713129182f"><rect x="0" width="26" y="0" height="14"/></clipPath></defs><g clip-path="url(#c2a29a5854)"><path fill="#560216" d="M 25.285156 38.273438 C 26.378906 38.910156 26.753906 40.3125 26.117188 41.410156 C 25.480469 42.503906 24.078125 42.878906 22.988281 42.242188 L 9.164062 34.269531 C 7.640625 33.386719 7.628906 31.167969 9.1875 30.28125 L 22.984375 22.3125 C 24.078125 21.679688 25.480469 22.050781 26.113281 23.152344 C 26.75 24.246094 26.375 25.65625 25.285156 26.292969 L 18.785156 30.035156 C 28.375 30.328125 37.558594 34.382812 44.226562 41.234375 C 45.117188 42.140625 45.089844 43.597656 44.1875 44.476562 C 43.277344 45.359375 41.824219 45.339844 40.941406 44.4375 C 35.160156 38.5 27.292969 34.976562 19.007812 34.652344 Z M 72.332031 25.257812 C 71.699219 26.359375 70.292969 26.734375 69.195312 26.097656 C 68.101562 25.460938 67.726562 24.058594 68.363281 22.957031 L 76.257812 9.28125 C 77.179688 7.542969 79.480469 7.542969 80.398438 9.28125 L 88.292969 22.957031 C 88.929688 24.058594 88.554688 25.460938 87.453125 26.097656 C 86.359375 26.734375 84.953125 26.359375 84.320312 25.257812 L 80.628906 18.863281 L 80.628906 40.402344 C 80.628906 41.671875 79.601562 42.699219 78.328125 42.699219 C 77.058594 42.699219 76.019531 41.671875 76.019531 40.402344 L 76.019531 18.863281 Z M 80.625 57.460938 C 80.625 58.726562 79.597656 59.761719 78.324219 59.761719 C 77.054688 59.761719 76.019531 58.726562 76.019531 57.460938 L 76.019531 49.421875 C 76.019531 48.148438 77.054688 47.113281 78.324219 47.113281 C 79.597656 47.113281 80.625 48.148438 80.625 49.421875 Z M 126.953125 42.242188 C 125.863281 42.878906 124.460938 42.496094 123.832031 41.402344 C 123.195312 40.300781 123.578125 38.910156 124.671875 38.273438 L 130.960938 34.644531 C 122.664062 34.976562 114.789062 38.503906 109.003906 44.4375 C 108.125 45.34375 106.671875 45.359375 105.761719 44.476562 C 104.855469 43.597656 104.832031 42.136719 105.71875 41.234375 C 112.402344 34.375 121.582031 30.320312 131.171875 30.035156 L 124.671875 26.292969 C 123.582031 25.65625 123.199219 24.253906 123.832031 23.160156 C 124.460938 22.058594 125.863281 21.683594 126.957031 22.3125 L 140.765625 30.277344 C 142.320312 31.167969 142.316406 33.382812 140.78125 34.265625 Z M 101.070312 58.089844 C 100.71875 59.304688 99.457031 60.003906 98.238281 59.664062 C 97.027344 59.3125 96.316406 58.039062 96.667969 56.824219 C 97.554688 53.726562 98.769531 50.914062 100.386719 48.1875 C 101.03125 47.097656 102.441406 46.730469 103.535156 47.375 C 104.625 48.027344 104.988281 49.429688 104.34375 50.523438 C 102.964844 52.863281 101.820312 55.488281 101.070312 58.089844 Z M 53.28125 56.824219 C 53.632812 58.039062 52.929688 59.316406 51.707031 59.664062 C 50.496094 60.003906 49.226562 59.304688 48.878906 58.089844 C 48.136719 55.496094 46.984375 52.84375 45.605469 50.519531 C 44.960938 49.425781 45.320312 48.027344 46.414062 47.371094 C 47.507812 46.726562 48.917969 47.097656 49.5625 48.1875 C 51.183594 50.929688 52.382812 53.710938 53.28125 56.824219 Z M 96.242188 83.558594 L 96.242188 97.601562 C 96.242188 98.871094 95.214844 99.898438 93.945312 99.898438 L 79.023438 99.898438 C 77.75 99.898438 76.722656 98.871094 76.722656 97.601562 L 76.722656 83.558594 L 57.820312 83.558594 L 57.820312 137.445312 L 120.234375 137.445312 L 120.234375 83.558594 Z M 81.316406 83.558594 L 81.316406 95.300781 L 91.644531 95.300781 L 91.644531 83.558594 Z M 86.984375 67.253906 L 95.140625 78.957031 L 117.363281 78.957031 L 106.753906 67.253906 Z M 89.539062 78.957031 L 81.382812 67.253906 L 71.769531 67.253906 L 80.183594 78.957031 Z M 74.542969 78.957031 L 66.117188 67.253906 L 44.679688 67.253906 L 56.457031 78.957031 Z M 53.214844 82.210938 L 41.433594 70.5 L 41.78125 124.746094 L 53.214844 134.695312 Z M 53.957031 141.441406 L 37.984375 127.546875 L 37.992188 127.539062 C 37.511719 127.121094 37.207031 126.511719 37.199219 125.816406 L 36.816406 65.167969 C 36.746094 63.714844 37.78125 62.648438 39.109375 62.648438 L 107.769531 62.648438 C 108.519531 62.648438 109.1875 63.015625 109.613281 63.570312 L 124.09375 79.5625 C 124.550781 79.984375 124.847656 80.589844 124.847656 81.261719 L 124.847656 139.75 C 124.847656 141.019531 123.808594 142.054688 122.539062 142.054688 L 55.515625 142.054688 C 54.914062 142.054688 54.367188 141.816406 53.957031 141.441406 Z M 53.957031 141.441406 " fill-opacity="1" fill-rule="nonzero"/></g><g transform="matrix(1, 0, 0, 1, 2, 70)"><g clip-path="url(#713129182f)"><g clip-path="url(#c90642176b)"><g fill="#ffffff" fill-opacity="1"><g transform="translate(0.439133, 10.778969)"><g><path d="M 2.90625 -1.03125 C 3.15625 -1.03125 3.453125 -1.082031 3.796875 -1.1875 L 3.796875 -0.140625 C 3.441406 0.015625 3.007812 0.09375 2.5 0.09375 C 1.9375 0.09375 1.523438 -0.046875 1.265625 -0.328125 C 1.015625 -0.617188 0.890625 -1.046875 0.890625 -1.609375 L 0.890625 -4.109375 L 0.21875 -4.109375 L 0.21875 -4.703125 L 1 -5.171875 L 1.40625 -6.265625 L 2.296875 -6.265625 L 2.296875 -5.15625 L 3.75 -5.15625 L 3.75 -4.109375 L 2.296875 -4.109375 L 2.296875 -1.609375 C 2.296875 -1.410156 2.351562 -1.265625 2.46875 -1.171875 C 2.582031 -1.078125 2.726562 -1.03125 2.90625 -1.03125 Z M 2.90625 -1.03125 "/></g></g></g></g><g fill="#ffffff" fill-opacity="1"><g transform="translate(4.543505, 10.778969)"><g><path d="M 2.875 -4.25 C 2.570312 -4.25 2.335938 -4.15625 2.171875 -3.96875 C 2.003906 -3.78125 1.910156 -3.515625 1.890625 -3.171875 L 3.859375 -3.171875 C 3.847656 -3.515625 3.753906 -3.78125 3.578125 -3.96875 C 3.410156 -4.15625 3.175781 -4.25 2.875 -4.25 Z M 3.078125 0.09375 C 2.242188 0.09375 1.59375 -0.132812 1.125 -0.59375 C 0.65625 -1.050781 0.421875 -1.703125 0.421875 -2.546875 C 0.421875 -3.410156 0.632812 -4.078125 1.0625 -4.546875 C 1.5 -5.015625 2.097656 -5.25 2.859375 -5.25 C 3.585938 -5.25 4.15625 -5.039062 4.5625 -4.625 C 4.96875 -4.21875 5.171875 -3.644531 5.171875 -2.90625 L 5.171875 -2.234375 L 1.84375 -2.234375 C 1.863281 -1.828125 1.984375 -1.507812 2.203125 -1.28125 C 2.421875 -1.0625 2.734375 -0.953125 3.140625 -0.953125 C 3.453125 -0.953125 3.742188 -0.984375 4.015625 -1.046875 C 4.296875 -1.117188 4.585938 -1.222656 4.890625 -1.359375 L 4.890625 -0.265625 C 4.640625 -0.148438 4.375 -0.0625 4.09375 0 C 3.8125 0.0625 3.472656 0.09375 3.078125 0.09375 Z M 3.078125 0.09375 "/></g></g></g><g fill="#ffffff" fill-opacity="1"><g transform="translate(10.12988, 10.778969)"><g><path d="M 1.796875 -2.640625 L 0.140625 -5.15625 L 1.734375 -5.15625 L 2.734375 -3.515625 L 3.75 -5.15625 L 5.34375 -5.15625 L 3.65625 -2.640625 L 5.421875 0 L 3.8125 0 L 2.734375 -1.765625 L 1.640625 0 L 0.046875 0 Z M 1.796875 -2.640625 "/></g></g></g><g fill="#ffffff" fill-opacity="1"><g transform="translate(15.596216, 10.778969)"><g><path d="M 2.90625 -1.03125 C 3.15625 -1.03125 3.453125 -1.082031 3.796875 -1.1875 L 3.796875 -0.140625 C 3.441406 0.015625 3.007812 0.09375 2.5 0.09375 C 1.9375 0.09375 1.523438 -0.046875 1.265625 -0.328125 C 1.015625 -0.617188 0.890625 -1.046875 0.890625 -1.609375 L 0.890625 -4.109375 L 0.21875 -4.109375 L 0.21875 -4.703125 L 1 -5.171875 L 1.40625 -6.265625 L 2.296875 -6.265625 L 2.296875 -5.15625 L 3.75 -5.15625 L 3.75 -4.109375 L 2.296875 -4.109375 L 2.296875 -1.609375 C 2.296875 -1.410156 2.351562 -1.265625 2.46875 -1.171875 C 2.582031 -1.078125 2.726562 -1.03125 2.90625 -1.03125 Z M 2.90625 -1.03125 "/></g></g></g><g clip-path="url(#0fa7b2d64b)"><g fill="#ffffff" fill-opacity="1"><g transform="translate(19.700588, 10.778969)"><g><path d="M 1.859375 -2.59375 C 1.859375 -2.082031 1.941406 -1.691406 2.109375 -1.421875 C 2.273438 -1.160156 2.550781 -1.03125 2.9375 -1.03125 C 3.3125 -1.03125 3.578125 -1.160156 3.734375 -1.421875 C 3.898438 -1.679688 3.984375 -2.070312 3.984375 -2.59375 C 3.984375 -3.101562 3.898438 -3.484375 3.734375 -3.734375 C 3.566406 -3.992188 3.296875 -4.125 2.921875 -4.125 C 2.546875 -4.125 2.273438 -3.992188 2.109375 -3.734375 C 1.941406 -3.484375 1.859375 -3.101562 1.859375 -2.59375 Z M 5.421875 -2.59375 C 5.421875 -1.75 5.195312 -1.085938 4.75 -0.609375 C 4.3125 -0.140625 3.695312 0.09375 2.90625 0.09375 C 2.414062 0.09375 1.976562 -0.015625 1.59375 -0.234375 C 1.21875 -0.453125 0.925781 -0.765625 0.71875 -1.171875 C 0.519531 -1.578125 0.421875 -2.050781 0.421875 -2.59375 C 0.421875 -3.4375 0.640625 -4.085938 1.078125 -4.546875 C 1.523438 -5.015625 2.144531 -5.25 2.9375 -5.25 C 3.4375 -5.25 3.875 -5.140625 4.25 -4.921875 C 4.625 -4.710938 4.910156 -4.40625 5.109375 -4 C 5.316406 -3.601562 5.421875 -3.132812 5.421875 -2.59375 Z M 5.421875 -2.59375 "/></g></g></g></g></g></g></svg>