<svg xmlns="http://www.w3.org/2000/svg" xmlns:xlink="http://www.w3.org/1999/xlink" width="200" zoomAndPan="magnify" viewBox="0 0 150 149.999998" height="200" preserveAspectRatio="xMidYMid meet" version="1.0"><defs><g/><clipPath id="97f36fb292"><path d="M 95 62 L 149.820312 62 L 149.820312 96 L 95 96 Z M 95 62 " clip-rule="nonzero"/></clipPath><clipPath id="d03719603f"><path d="M 94 98 L 149.820312 98 L 149.820312 133 L 94 133 Z M 94 98 " clip-rule="nonzero"/></clipPath><clipPath id="1b24c9d576"><path d="M 51 0.0429688 L 88 0.0429688 L 88 64 L 51 64 Z M 51 0.0429688 " clip-rule="nonzero"/></clipPath><clipPath id="3d6e13ccdc"><path d="M 89 61 L 149.820312 61 L 149.820312 104 L 89 104 Z M 89 61 " clip-rule="nonzero"/></clipPath><clipPath id="f090f9fd89"><path d="M 87 98 L 149.820312 98 L 149.820312 141 L 87 141 Z M 87 98 " clip-rule="nonzero"/></clipPath><clipPath id="bb0863a6a0"><path d="M 0 3 L 133 3 L 133 149.980469 L 0 149.980469 Z M 0 3 " clip-rule="nonzero"/></clipPath></defs><g clip-path="url(#97f36fb292)"><path fill="#e10032" d="M 156.304688 77.152344 L 133.339844 62.363281 C 131.910156 61.441406 130.03125 62.46875 130.03125 64.164062 L 130.03125 70.914062 L 97.480469 70.914062 C 96.296875 70.914062 95.335938 71.875 95.335938 73.058594 L 95.335938 84.851562 C 95.335938 86.039062 96.296875 87 97.480469 87 L 130.03125 87 L 130.03125 93.746094 C 130.03125 95.445312 131.910156 96.46875 133.339844 95.550781 L 156.304688 80.761719 C 157.617188 79.914062 157.617188 77.996094 156.304688 77.152344 Z M 156.304688 77.152344 " fill-opacity="1" fill-rule="nonzero"/></g><g clip-path="url(#d03719603f)"><path fill="#a9f20a" d="M 95.839844 117.09375 L 118.808594 131.886719 C 120.234375 132.804688 122.113281 131.78125 122.113281 130.082031 L 122.113281 123.332031 L 154.664062 123.332031 C 155.847656 123.332031 156.808594 122.371094 156.808594 121.1875 L 156.808594 109.394531 C 156.808594 108.210938 155.847656 107.25 154.664062 107.25 L 122.113281 107.25 L 122.113281 100.5 C 122.113281 98.800781 120.234375 97.777344 118.808594 98.695312 L 95.839844 113.488281 C 94.527344 114.332031 94.527344 116.25 95.839844 117.09375 Z M 95.839844 117.09375 " fill-opacity="1" fill-rule="nonzero"/></g><g clip-path="url(#1b24c9d576)"><path fill="#560216" d="M 80.25 0.0429688 L 58.917969 0.0429688 C 57.90625 0.0429688 57.046875 0.78125 56.894531 1.78125 L 51.832031 35.070312 C 51.6875 36.007812 51.617188 36.960938 51.617188 37.910156 L 51.617188 62.757812 C 51.617188 63.359375 52.351562 63.65625 52.769531 63.222656 L 58.96875 56.769531 C 59.859375 55.84375 61.34375 55.84375 62.234375 56.769531 L 67.953125 62.722656 C 68.84375 63.648438 70.328125 63.648438 71.21875 62.722656 L 76.933594 56.769531 C 77.824219 55.84375 79.308594 55.84375 80.199219 56.769531 L 86.394531 63.222656 C 86.8125 63.65625 87.550781 63.359375 87.550781 62.757812 L 87.550781 37.910156 C 87.550781 36.960938 87.476562 36.007812 87.332031 35.070312 L 82.269531 1.78125 C 82.117188 0.78125 81.257812 0.0429688 80.25 0.0429688 Z M 80.25 0.0429688 " fill-opacity="1" fill-rule="nonzero"/></g><g clip-path="url(#3d6e13ccdc)"><path fill="#000000" d="M 156.601562 80.648438 C 156.589844 80.644531 127.507812 61.949219 127.5 61.945312 C 126.007812 60.933594 123.851562 62.101562 123.894531 63.914062 L 123.890625 72.25 C 118.796875 72.25 107.179688 72.25 107.179688 72.25 C 102.6875 72.246094 98.125 72.253906 93.632812 72.285156 C 91.183594 72.230469 89.125 74.355469 89.242188 76.796875 C 89.246094 76.972656 89.246094 77.511719 89.25 77.6875 C 89.269531 81.257812 89.273438 84.839844 89.320312 88.40625 C 89.195312 90.648438 90.992188 92.726562 93.246094 92.847656 C 94.351562 92.882812 98.507812 92.785156 99.664062 92.785156 C 106.015625 92.605469 112.367188 92.972656 118.71875 91.59375 C 119.0625 91.515625 119.351562 91.246094 119.433594 90.878906 C 119.542969 90.375 119.222656 89.875 118.71875 89.765625 C 112.367188 88.390625 106.015625 88.753906 99.664062 88.574219 C 98.796875 88.566406 94.863281 88.511719 93.75 88.5 C 93.792969 85.292969 93.800781 82.085938 93.820312 78.878906 L 93.832031 76.90625 C 94.871094 76.910156 96.726562 76.925781 97.652344 76.925781 C 104.136719 76.9375 119.53125 76.957031 126.230469 76.9375 C 127.527344 76.9375 128.578125 75.890625 128.574219 74.59375 L 128.574219 68.207031 L 150.945312 82.644531 C 143.402344 87.558594 135.453125 92.746094 128.007812 97.769531 C 127.839844 95.398438 127.589844 93.027344 127.183594 90.679688 C 126.992188 89.640625 125.476562 89.625 125.28125 90.679688 C 124.957031 92.453125 124.769531 94.234375 124.597656 96.019531 C 124.4375 97.800781 124.328125 99.582031 124.253906 101.363281 C 124.238281 101.722656 124.324219 102.089844 124.523438 102.425781 C 125.09375 103.398438 126.378906 103.660156 127.304688 103.023438 C 134.40625 98.710938 142.285156 93.734375 149.300781 89.277344 L 156.589844 84.632812 C 156.867188 84.453125 157.121094 84.210938 157.3125 83.917969 C 158.015625 82.816406 157.699219 81.355469 156.601562 80.648438 Z M 93.75 88.640625 C 93.75 88.640625 93.75 88.644531 93.75 88.644531 C 93.75 88.652344 93.75 88.648438 93.75 88.640625 Z M 93.75 88.640625 " fill-opacity="1" fill-rule="nonzero"/></g><g clip-path="url(#f090f9fd89)"><path fill="#000000" d="M 155.5 113.445312 C 155.628906 111.203125 153.828125 109.128906 151.578125 109.003906 L 151.269531 108.992188 L 151.113281 108.996094 C 151.113281 108.996094 149.921875 109.007812 149.921875 109.007812 C 142.003906 109.289062 133.980469 108.644531 126.105469 110.257812 C 125.136719 110.46875 125.128906 111.875 126.105469 112.085938 C 132.457031 113.464844 138.808594 113.101562 145.160156 113.277344 C 146.023438 113.289062 149.960938 113.339844 151.070312 113.351562 C 151.027344 116.558594 151.019531 119.765625 151.003906 122.972656 L 150.988281 124.945312 C 149.953125 124.941406 148.097656 124.925781 147.171875 124.925781 C 140.6875 124.914062 125.292969 124.894531 118.589844 124.914062 C 117.296875 124.914062 116.246094 125.964844 116.246094 127.257812 L 116.25 133.644531 L 93.875 119.207031 C 101.417969 114.292969 109.371094 109.105469 116.8125 104.082031 C 116.980469 106.457031 117.230469 108.824219 117.640625 111.171875 C 117.828125 112.210938 119.34375 112.226562 119.539062 111.171875 C 119.863281 109.398438 120.050781 107.617188 120.226562 105.832031 C 120.386719 104.050781 120.496094 102.269531 120.566406 100.488281 C 120.582031 100.128906 120.496094 99.761719 120.300781 99.429688 C 119.726562 98.453125 118.445312 98.195312 117.519531 98.828125 C 110.414062 103.140625 102.535156 108.117188 95.523438 112.578125 L 88.230469 117.21875 C 87.953125 117.398438 87.699219 117.640625 87.511719 117.9375 C 86.804688 119.035156 87.125 120.5 88.222656 121.203125 C 88.230469 121.207031 117.3125 139.902344 117.324219 139.90625 C 118.816406 140.917969 120.96875 139.753906 120.929688 137.941406 L 120.933594 129.601562 C 126.023438 129.601562 137.644531 129.601562 137.644531 129.601562 C 142.132812 129.605469 146.695312 129.597656 151.191406 129.566406 C 153.640625 129.621094 155.695312 127.496094 155.578125 125.054688 C 155.574219 124.878906 155.578125 124.34375 155.574219 124.164062 C 155.550781 120.59375 155.546875 117.015625 155.5 113.445312 Z M 151.070312 113.210938 C 151.070312 113.210938 151.070312 113.210938 151.070312 113.207031 C 151.070312 113.199219 151.070312 113.203125 151.070312 113.210938 Z M 151.070312 113.210938 " fill-opacity="1" fill-rule="nonzero"/></g><g clip-path="url(#bb0863a6a0)"><path fill="#000000" d="M 130.914062 135.101562 C 130.847656 134.578125 130.433594 134.148438 129.890625 134.078125 C 129.242188 133.996094 128.648438 134.453125 128.566406 135.101562 C 128.375 136.445312 128.308594 137.796875 128.113281 139.132812 C 127.644531 141.875 125.285156 144.175781 122.574219 144.453125 C 94.496094 144.070312 59.683594 143.917969 31.539062 143.863281 C 27.25 143.863281 15.703125 143.800781 11.585938 143.820312 L 8.054688 143.820312 L 7.917969 143.816406 C 7.828125 143.8125 7.738281 143.8125 7.652344 143.804688 C 5.714844 143.683594 3.925781 142.363281 3.214844 140.5625 C 2.941406 139.894531 2.828125 139.164062 2.839844 138.441406 C 2.789062 136.511719 2.902344 123.914062 2.835938 121.816406 C 2.839844 105.410156 2.824219 61.117188 2.839844 45.335938 C 2.84375 44.585938 2.828125 43.730469 3.117188 43.027344 C 3.34375 42.335938 4.050781 41.191406 4.390625 40.542969 C 8.972656 32.21875 15.046875 21.207031 19.628906 12.875 L 20.03125 12.144531 L 20.132812 11.964844 C 21.019531 10.261719 22.847656 9.160156 24.773438 9.183594 C 28.761719 9.1875 41.242188 9.1875 50.480469 9.183594 C 49.160156 14.066406 48.3125 19.058594 47.492188 24.042969 C 46.753906 28.792969 45.605469 35.0625 44.839844 40.203125 C 38.550781 40.222656 32.265625 40.28125 25.976562 40.257812 C 23.367188 40.28125 20.753906 40.347656 18.140625 40.433594 C 16.820312 40.523438 13.488281 40.492188 12.257812 40.847656 C 11.523438 41.066406 10.550781 41.3125 9.980469 41.988281 C 9.167969 43.421875 11.28125 44.054688 12.261719 44.316406 C 13.488281 44.679688 16.878906 44.636719 18.140625 44.730469 C 25.976562 45.011719 33.816406 44.914062 41.65625 44.921875 C 42.597656 44.921875 43.542969 44.925781 44.484375 44.929688 C 44.445312 51.929688 44.433594 62.664062 44.449219 68.640625 C 44.449219 68.972656 44.457031 69.308594 44.550781 69.632812 C 45.109375 71.925781 48.171875 72.667969 49.722656 70.914062 L 49.789062 70.84375 L 50.0625 70.558594 C 51.640625 68.910156 53.953125 66.496094 55.523438 64.855469 L 55.796875 64.570312 C 55.796875 64.570312 55.800781 64.566406 55.804688 64.5625 C 56.222656 64.988281 58.058594 66.914062 58.347656 67.203125 C 58.730469 67.609375 60.753906 69.691406 61.085938 70.046875 C 61.3125 70.277344 61.574219 70.574219 61.824219 70.777344 C 63.648438 72.367188 66.613281 72.152344 68.207031 70.335938 C 68.378906 70.167969 68.855469 69.652344 69.027344 69.480469 C 70.300781 68.160156 72.484375 65.886719 73.765625 64.554688 C 74.074219 64.875 74.875 65.714844 75.140625 65.988281 C 76.46875 67.367188 78.671875 69.675781 80.007812 71.046875 C 81.898438 72.875 85.128906 71.457031 85.09375 68.839844 C 85.089844 60.730469 85.089844 52.617188 85 44.511719 C 85.226562 44.546875 85.453125 44.570312 85.683594 44.574219 C 92.515625 45.019531 99.40625 44.925781 106.242188 44.921875 C 112.117188 44.9375 117.996094 45.0625 123.867188 44.738281 C 124.984375 44.691406 126.136719 44.652344 127.246094 44.441406 C 127.261719 44.675781 127.265625 44.910156 127.285156 45.121094 C 127.390625 47.339844 127.527344 49.554688 127.730469 51.773438 C 127.902344 53.941406 128.195312 56.277344 128.519531 58.421875 C 128.75 59.773438 130.710938 59.8125 130.960938 58.421875 C 131.222656 56.808594 131.429688 55.070312 131.597656 53.433594 C 131.867188 50.546875 132.097656 47.597656 132.210938 44.707031 C 132.242188 43.082031 131.898438 41.445312 131.199219 39.976562 C 130.90625 39.40625 130.308594 38.222656 129.988281 37.652344 C 127.859375 33.640625 122.742188 24.226562 120.503906 20.097656 C 118.882812 17.089844 116.160156 12.089844 114.566406 9.132812 C 114.398438 8.824219 114.203125 8.5 114.011719 8.210938 C 112.167969 5.390625 108.96875 3.535156 105.605469 3.292969 C 104.027344 3.222656 101.148438 3.261719 99.589844 3.230469 C 77.605469 3.089844 48.46875 3.113281 26.4375 3.101562 C 26.4375 3.101562 24.773438 3.101562 24.773438 3.101562 C 20.78125 3.054688 16.863281 5.324219 14.929688 8.824219 C 10.726562 16.421875 4.914062 27.105469 0.703125 34.71875 L -0.898438 37.636719 L -1.699219 39.09375 L -1.929688 39.523438 C -2.542969 40.699219 -2.9375 41.988281 -3.105469 43.304688 C -3.199219 43.957031 -3.183594 44.679688 -3.1875 45.335938 C -3.203125 68.398438 -3.144531 111.886719 -3.183594 135.117188 C -3.164062 135.65625 -3.230469 139.125 -3.148438 139.511719 C -2.859375 143.699219 -0.015625 147.539062 3.898438 149.050781 C 5.28125 149.605469 6.777344 149.863281 8.261719 149.84375 C 21.871094 149.851562 44.34375 149.753906 58.140625 149.730469 C 76.042969 149.503906 103.5 149.671875 121.320312 149.179688 C 126.273438 149.191406 130.765625 145.324219 131.253906 140.378906 C 131.332031 139.734375 131.332031 139.066406 131.269531 138.425781 C 131.164062 137.316406 131.054688 136.210938 130.914062 135.101562 Z M 55.742188 64.5 C 55.742188 64.503906 55.734375 64.492188 55.746094 64.503906 C 55.746094 64.503906 55.742188 64.503906 55.742188 64.5 Z M 55.859375 64.507812 C 55.859375 64.507812 55.859375 64.507812 55.855469 64.507812 C 55.863281 64.503906 55.867188 64.5 55.867188 64.503906 C 55.863281 64.507812 55.859375 64.5 55.859375 64.507812 Z M 73.707031 64.5 C 73.707031 64.5 73.707031 64.496094 73.707031 64.496094 C 73.710938 64.496094 73.714844 64.5 73.714844 64.503906 C 73.714844 64.5 73.707031 64.5 73.707031 64.5 Z M 102.914062 9.035156 C 103.589844 9.035156 105.148438 8.980469 105.746094 9.09375 C 107.335938 9.339844 108.777344 10.355469 109.570312 11.761719 L 109.621094 11.855469 L 110.023438 12.578125 C 114.832031 21.160156 120.710938 31.804688 125.660156 40.519531 C 125.03125 40.476562 124.363281 40.457031 123.867188 40.425781 C 114.082031 40 104.285156 40.308594 94.496094 40.257812 C 92.539062 40.28125 90.582031 40.347656 88.621094 40.433594 C 87.773438 40.511719 85.851562 40.5 84.726562 40.714844 C 83.851562 35.335938 82.679688 28.179688 81.835938 23.21875 C 81.207031 19.375 80.46875 15.613281 79.011719 11.945312 C 78.632812 10.996094 77.265625 11.289062 77.207031 12.21875 C 76.796875 17.363281 77.703125 22.578125 78.386719 27.644531 C 78.910156 31.445312 79.96875 39.125 80.519531 42.921875 C 80.414062 48.703125 80.417969 57.273438 80.410156 64.699219 C 79.386719 63.636719 77.84375 62.011719 76.941406 61.101562 C 75.292969 59.464844 72.429688 59.414062 70.71875 60.984375 C 70.210938 61.457031 68.359375 63.433594 67.839844 63.960938 C 67.234375 64.59375 65.421875 66.480469 64.78125 67.144531 C 64.132812 66.46875 62.339844 64.597656 61.726562 63.957031 C 61.609375 63.824219 59.28125 61.421875 59.269531 61.390625 C 58.070312 60.019531 56.054688 59.460938 54.328125 60.066406 C 53.457031 60.335938 52.730469 60.921875 52.128906 61.59375 C 51.503906 62.246094 50.046875 63.753906 49.183594 64.648438 C 49.1875 58.496094 49.207031 49.761719 49.144531 44.949219 C 54.488281 44.96875 59.832031 44.960938 65.175781 44.738281 C 67.796875 44.644531 70.566406 44.625 73.011719 43.53125 C 73.820312 43.191406 73.816406 41.976562 73.011719 41.632812 C 72.359375 41.335938 71.707031 41.140625 71.054688 40.984375 C 69.203125 40.511719 67.070312 40.503906 65.175781 40.425781 C 59.953125 40.253906 54.726562 40.203125 49.503906 40.199219 C 50.21875 35.234375 51.078125 29.242188 51.683594 24.679688 C 52.402344 19.539062 53.09375 14.378906 53.261719 9.183594 C 56.019531 9.183594 58.296875 9.179688 59.6875 9.175781 C 70.648438 9.144531 92.238281 9.128906 102.914062 9.035156 Z M 102.914062 9.035156 " fill-opacity="1" fill-rule="nonzero"/></g><g fill="#ffffff" fill-opacity="1"><g transform="translate(5.362902, 92.826918)"><g><path d="M 4.9375 -1.75 C 5.351562 -1.75 5.851562 -1.835938 6.4375 -2.015625 L 6.4375 -0.25 C 5.84375 0.0195312 5.113281 0.15625 4.25 0.15625 C 3.289062 0.15625 2.59375 -0.0820312 2.15625 -0.5625 C 1.726562 -1.050781 1.515625 -1.773438 1.515625 -2.734375 L 1.515625 -6.953125 L 0.375 -6.953125 L 0.375 -7.953125 L 1.6875 -8.75 L 2.375 -10.59375 L 3.890625 -10.59375 L 3.890625 -8.734375 L 6.34375 -8.734375 L 6.34375 -6.953125 L 3.890625 -6.953125 L 3.890625 -2.734375 C 3.890625 -2.398438 3.984375 -2.148438 4.171875 -1.984375 C 4.367188 -1.828125 4.625 -1.75 4.9375 -1.75 Z M 4.9375 -1.75 "/></g></g></g><g fill="#ffffff" fill-opacity="1"><g transform="translate(12.306525, 92.826918)"><g><path d="M 4.875 -7.203125 C 4.363281 -7.203125 3.960938 -7.039062 3.671875 -6.71875 C 3.390625 -6.40625 3.226562 -5.953125 3.1875 -5.359375 L 6.53125 -5.359375 C 6.519531 -5.953125 6.363281 -6.40625 6.0625 -6.71875 C 5.769531 -7.039062 5.375 -7.203125 4.875 -7.203125 Z M 5.203125 0.15625 C 3.796875 0.15625 2.695312 -0.226562 1.90625 -1 C 1.113281 -1.78125 0.71875 -2.882812 0.71875 -4.3125 C 0.71875 -5.769531 1.082031 -6.898438 1.8125 -7.703125 C 2.550781 -8.503906 3.566406 -8.90625 4.859375 -8.90625 C 6.085938 -8.90625 7.046875 -8.550781 7.734375 -7.84375 C 8.421875 -7.144531 8.765625 -6.175781 8.765625 -4.9375 L 8.765625 -3.78125 L 3.140625 -3.78125 C 3.160156 -3.101562 3.359375 -2.570312 3.734375 -2.1875 C 4.109375 -1.8125 4.632812 -1.625 5.3125 -1.625 C 5.84375 -1.625 6.34375 -1.675781 6.8125 -1.78125 C 7.28125 -1.894531 7.769531 -2.070312 8.28125 -2.3125 L 8.28125 -0.46875 C 7.863281 -0.257812 7.414062 -0.101562 6.9375 0 C 6.46875 0.101562 5.890625 0.15625 5.203125 0.15625 Z M 5.203125 0.15625 "/></g></g></g><g fill="#ffffff" fill-opacity="1"><g transform="translate(21.757341, 92.826918)"><g><path d="M 3.046875 -4.46875 L 0.234375 -8.734375 L 2.9375 -8.734375 L 4.625 -5.953125 L 6.34375 -8.734375 L 9.046875 -8.734375 L 6.203125 -4.46875 L 9.171875 0 L 6.46875 0 L 4.625 -3 L 2.78125 0 L 0.078125 0 Z M 3.046875 -4.46875 "/></g></g></g><g fill="#ffffff" fill-opacity="1"><g transform="translate(31.005082, 92.826918)"><g><path d="M 4.9375 -1.75 C 5.351562 -1.75 5.851562 -1.835938 6.4375 -2.015625 L 6.4375 -0.25 C 5.84375 0.0195312 5.113281 0.15625 4.25 0.15625 C 3.289062 0.15625 2.59375 -0.0820312 2.15625 -0.5625 C 1.726562 -1.050781 1.515625 -1.773438 1.515625 -2.734375 L 1.515625 -6.953125 L 0.375 -6.953125 L 0.375 -7.953125 L 1.6875 -8.75 L 2.375 -10.59375 L 3.890625 -10.59375 L 3.890625 -8.734375 L 6.34375 -8.734375 L 6.34375 -6.953125 L 3.890625 -6.953125 L 3.890625 -2.734375 C 3.890625 -2.398438 3.984375 -2.148438 4.171875 -1.984375 C 4.367188 -1.828125 4.625 -1.75 4.9375 -1.75 Z M 4.9375 -1.75 "/></g></g></g><g fill="#ffffff" fill-opacity="1"><g transform="translate(37.948705, 92.826918)"><g><path d="M 3.15625 -4.390625 C 3.15625 -3.523438 3.296875 -2.867188 3.578125 -2.421875 C 3.859375 -1.984375 4.320312 -1.765625 4.96875 -1.765625 C 5.601562 -1.765625 6.054688 -1.984375 6.328125 -2.421875 C 6.609375 -2.859375 6.75 -3.515625 6.75 -4.390625 C 6.75 -5.253906 6.609375 -5.898438 6.328125 -6.328125 C 6.046875 -6.765625 5.585938 -6.984375 4.953125 -6.984375 C 4.316406 -6.984375 3.859375 -6.765625 3.578125 -6.328125 C 3.296875 -5.898438 3.15625 -5.253906 3.15625 -4.390625 Z M 9.1875 -4.390625 C 9.1875 -2.960938 8.8125 -1.847656 8.0625 -1.046875 C 7.3125 -0.242188 6.269531 0.15625 4.9375 0.15625 C 4.09375 0.15625 3.347656 -0.0234375 2.703125 -0.390625 C 2.066406 -0.765625 1.578125 -1.296875 1.234375 -1.984375 C 0.890625 -2.671875 0.71875 -3.472656 0.71875 -4.390625 C 0.71875 -5.816406 1.085938 -6.925781 1.828125 -7.71875 C 2.578125 -8.507812 3.628906 -8.90625 4.984375 -8.90625 C 5.816406 -8.90625 6.550781 -8.722656 7.1875 -8.359375 C 7.832031 -7.992188 8.328125 -7.46875 8.671875 -6.78125 C 9.015625 -6.101562 9.1875 -5.304688 9.1875 -4.390625 Z M 9.1875 -4.390625 "/></g></g></g></svg>