<svg xmlns="http://www.w3.org/2000/svg" xmlns:xlink="http://www.w3.org/1999/xlink" width="200" zoomAndPan="magnify" viewBox="0 0 150 149.999998" height="200" preserveAspectRatio="xMidYMid meet" version="1.0"><defs><g/><clipPath id="e6cf5c4246"><path d="M 0 12.644531 L 149.734375 12.644531 L 149.734375 130.394531 L 0 130.394531 Z M 0 12.644531 " clip-rule="nonzero"/></clipPath><clipPath id="117dc31314"><path d="M 10 2 L 12.800781 2 L 12.800781 6 L 10 6 Z M 10 2 " clip-rule="nonzero"/></clipPath><clipPath id="466333076e"><rect x="0" width="13" y="0" height="7"/></clipPath></defs><g clip-path="url(#e6cf5c4246)"><path fill="#560216" d="M 29.347656 83.800781 C 28.75 83.800781 28.148438 83.570312 27.691406 83.113281 L 24.269531 79.691406 L 20.851562 83.113281 C 20.390625 83.570312 19.792969 83.800781 19.191406 83.800781 C 18.589844 83.800781 17.992188 83.570312 17.53125 83.113281 C 16.617188 82.199219 16.617188 80.710938 17.53125 79.796875 L 20.953125 76.375 L 17.53125 72.957031 C 16.617188 72.039062 16.617188 70.554688 17.53125 69.636719 C 18.449219 68.722656 19.933594 68.722656 20.851562 69.636719 L 24.269531 73.058594 L 27.691406 69.636719 C 28.605469 68.722656 30.089844 68.722656 31.007812 69.636719 C 31.921875 70.554688 31.921875 72.039062 31.007812 72.957031 L 27.585938 76.375 L 31.007812 79.796875 C 31.921875 80.710938 31.921875 82.195312 31.007812 83.113281 C 30.550781 83.570312 29.949219 83.800781 29.347656 83.800781 Z M 17.234375 60.457031 C 21.617188 60.457031 25.179688 56.898438 25.179688 52.519531 C 25.179688 48.140625 21.617188 44.578125 17.234375 44.578125 C 12.855469 44.578125 9.292969 48.140625 9.292969 52.519531 C 9.292969 56.898438 12.855469 60.457031 17.234375 60.457031 Z M 59.660156 50.484375 L 52.589844 45.0625 C 52.09375 44.683594 51.472656 44.515625 50.855469 44.597656 C 50.238281 44.679688 49.679688 45 49.300781 45.496094 L 43.875 52.566406 C 43.085938 53.59375 43.28125 55.066406 44.308594 55.855469 C 44.734375 56.183594 45.238281 56.339844 45.734375 56.339844 C 46.441406 56.339844 47.136719 56.023438 47.597656 55.421875 L 49.664062 52.730469 C 51.035156 67.664062 45.417969 84.808594 29.148438 92.476562 C 27.976562 93.027344 27.472656 94.425781 28.023438 95.597656 C 28.425781 96.449219 29.269531 96.945312 30.148438 96.945312 C 30.484375 96.945312 30.824219 96.875 31.148438 96.722656 C 49.492188 88.078125 55.851562 68.933594 54.335938 52.3125 L 56.804688 54.207031 C 57.832031 54.996094 59.304688 54.800781 60.09375 53.773438 C 60.882812 52.746094 60.6875 51.273438 59.660156 50.484375 Z M 114.402344 25.824219 C 124.511719 25.824219 132.738281 34.050781 132.738281 44.160156 C 132.738281 49.238281 127.695312 57.152344 121.105469 66.972656 C 119.15625 69.871094 117.476562 72.378906 116.441406 74.195312 C 116.023438 74.929688 115.246094 75.382812 114.402344 75.382812 C 113.558594 75.382812 112.78125 74.929688 112.363281 74.195312 C 111.328125 72.378906 109.644531 69.875 107.699219 66.972656 C 101.109375 57.152344 96.066406 49.238281 96.066406 44.160156 C 96.066406 34.050781 104.292969 25.824219 114.402344 25.824219 Z M 114.402344 30.519531 C 106.878906 30.519531 100.757812 36.636719 100.757812 44.160156 C 100.757812 48.210938 107.28125 57.929688 111.59375 64.359375 C 112.617188 65.878906 113.566406 67.296875 114.402344 68.578125 C 115.238281 67.296875 116.1875 65.878906 117.210938 64.355469 C 121.523438 57.929688 128.042969 48.210938 128.042969 44.160156 C 128.042969 36.636719 121.925781 30.519531 114.402344 30.519531 Z M 57.144531 91.132812 C 56.230469 90.21875 54.746094 90.21875 53.828125 91.132812 L 50.40625 94.554688 L 46.988281 91.132812 C 46.070312 90.21875 44.585938 90.21875 43.671875 91.132812 C 42.753906 92.050781 42.753906 93.535156 43.671875 94.453125 L 47.089844 97.871094 L 43.671875 101.292969 C 42.753906 102.207031 42.753906 103.691406 43.671875 104.609375 C 44.128906 105.066406 44.730469 105.296875 45.328125 105.296875 C 45.929688 105.296875 46.53125 105.066406 46.988281 104.609375 L 50.40625 101.191406 L 53.828125 104.609375 C 54.285156 105.066406 54.886719 105.296875 55.488281 105.296875 C 56.085938 105.296875 56.6875 105.066406 57.144531 104.609375 C 58.0625 103.695312 58.0625 102.207031 57.144531 101.292969 L 53.726562 97.871094 L 57.144531 94.453125 C 58.0625 93.535156 58.0625 92.050781 57.144531 91.132812 Z M 17.234375 95.066406 C 12.855469 95.066406 9.292969 98.628906 9.292969 103.007812 C 9.292969 107.386719 12.855469 110.945312 17.234375 110.945312 C 21.617188 110.945312 25.179688 107.386719 25.179688 103.007812 C 25.179688 98.628906 21.617188 95.066406 17.234375 95.066406 Z M 149.527344 101.863281 C 149.855469 102.277344 150.03125 102.789062 150.03125 103.316406 L 150.03125 120.863281 C 150.03125 122.15625 148.980469 123.207031 147.6875 123.207031 L 136.023438 123.207031 C 135.144531 127.125 131.640625 130.0625 127.460938 130.0625 C 123.28125 130.0625 119.78125 127.125 118.898438 123.207031 L 104.210938 123.207031 C 103.332031 127.125 99.828125 130.0625 95.652344 130.0625 C 91.472656 130.0625 87.96875 127.125 87.089844 123.207031 L 81.894531 123.207031 C 81.015625 127.125 77.511719 130.0625 73.332031 130.0625 C 69.152344 130.0625 65.648438 127.125 64.769531 123.207031 L 6.695312 123.207031 C 2.878906 123.207031 -0.226562 120.101562 -0.226562 116.285156 L -0.226562 33.644531 C -0.226562 29.828125 2.878906 26.722656 6.695312 26.722656 L 18.433594 26.722656 L 18.433594 25.441406 C 18.433594 23.0625 20.367188 21.125 22.742188 21.125 L 24.746094 21.125 C 25.820312 16.28125 30.152344 12.648438 35.3125 12.648438 C 40.476562 12.648438 44.804688 16.28125 45.878906 21.125 L 47.875 21.125 C 50.253906 21.125 52.191406 23.0625 52.191406 25.441406 L 52.191406 26.722656 L 63.929688 26.722656 C 67.746094 26.722656 70.851562 29.828125 70.851562 33.644531 L 70.851562 84.921875 L 76 84.921875 L 76 66.457031 C 76 64.472656 77.613281 62.863281 79.59375 62.863281 L 101.132812 62.863281 C 103.113281 62.863281 104.726562 64.472656 104.726562 66.457031 L 104.726562 84.921875 L 112.980469 84.921875 C 113.375 84.621094 113.867188 84.441406 114.402344 84.441406 L 134.632812 84.441406 C 135.351562 84.441406 136.03125 84.769531 136.472656 85.332031 Z M 80.691406 84.921875 L 100.035156 84.921875 L 100.035156 67.554688 L 92.714844 67.554688 L 92.714844 73.070312 C 92.714844 74.363281 91.664062 75.414062 90.367188 75.414062 C 89.074219 75.414062 88.023438 74.363281 88.023438 73.070312 L 88.023438 67.554688 L 80.691406 67.554688 Z M 68.671875 106.976562 L 88.023438 106.976562 L 88.023438 89.617188 L 80.691406 89.617188 L 80.691406 95.121094 C 80.691406 96.417969 79.644531 97.46875 78.347656 97.46875 C 77.050781 97.46875 76 96.417969 76 95.121094 L 76 89.617188 L 68.671875 89.617188 Z M 59.371094 106.976562 L 63.980469 106.976562 L 63.980469 88.507812 C 63.980469 87.03125 64.878906 85.761719 66.160156 85.214844 L 66.160156 33.644531 C 66.160156 32.417969 65.160156 31.417969 63.929688 31.417969 L 52.191406 31.417969 L 52.191406 32.6875 C 52.191406 35.070312 50.253906 37.007812 47.875 37.007812 L 22.742188 37.007812 C 20.367188 37.007812 18.433594 35.070312 18.433594 32.6875 L 18.433594 31.417969 L 6.695312 31.417969 C 5.464844 31.417969 4.464844 32.417969 4.464844 33.644531 L 4.464844 116.285156 C 4.464844 117.515625 5.464844 118.515625 6.695312 118.515625 L 54.683594 118.515625 L 57.09375 108.761719 C 57.355469 107.710938 58.292969 106.976562 59.371094 106.976562 Z M 112.054688 111.667969 L 61.207031 111.667969 L 59.515625 118.515625 L 65.003906 118.515625 C 66.167969 115.03125 69.460938 112.507812 73.332031 112.507812 C 77.203125 112.507812 80.492188 115.03125 81.65625 118.515625 L 87.324219 118.515625 C 88.488281 115.03125 91.777344 112.507812 95.652344 112.507812 C 99.523438 112.507812 102.8125 115.03125 103.976562 118.515625 L 112.054688 118.515625 Z M 112.054688 89.617188 L 104.726562 89.617188 L 104.726562 95.121094 C 104.726562 96.417969 103.675781 97.46875 102.378906 97.46875 C 101.085938 97.46875 100.035156 96.417969 100.035156 95.121094 L 100.035156 89.617188 L 92.714844 89.617188 L 92.714844 106.976562 L 112.054688 106.976562 Z M 145.339844 104.132812 L 133.496094 89.132812 L 116.746094 89.132812 L 116.746094 118.515625 L 119.136719 118.515625 C 120.300781 115.03125 123.589844 112.507812 127.460938 112.507812 C 131.332031 112.507812 134.625 115.03125 135.789062 118.515625 L 145.339844 118.515625 L 145.339844 113.234375 L 140.773438 113.234375 C 139.476562 113.234375 138.425781 112.183594 138.425781 110.886719 C 138.425781 109.589844 139.476562 108.539062 140.773438 108.539062 L 145.339844 108.539062 Z M 131.273438 90.839844 L 122.6875 90.839844 C 121.390625 90.839844 120.339844 91.886719 120.339844 93.183594 L 120.339844 105.148438 C 120.339844 106.441406 121.390625 107.492188 122.6875 107.492188 L 140.714844 107.492188 C 141.613281 107.492188 142.433594 106.980469 142.824219 106.171875 C 143.21875 105.359375 143.113281 104.398438 142.554688 103.695312 L 133.113281 91.730469 C 132.667969 91.167969 131.992188 90.839844 131.273438 90.839844 Z M 103.496094 44.003906 C 103.496094 50.015625 108.386719 54.910156 114.402344 54.910156 C 120.414062 54.910156 125.308594 50.015625 125.308594 44.003906 C 125.308594 37.988281 120.414062 33.097656 114.402344 33.097656 C 108.386719 33.097656 103.496094 37.988281 103.496094 44.003906 Z M 103.496094 44.003906 " fill-opacity="1" fill-rule="nonzero"/></g><g transform="matrix(1, 0, 0, 1, 58, 3)"><g clip-path="url(#466333076e)"><g fill="#ffffff" fill-opacity="1"><g transform="translate(0.960915, 4.977149)"><g><path d="M 1.359375 -0.484375 C 1.472656 -0.484375 1.613281 -0.507812 1.78125 -0.5625 L 1.78125 -0.0625 C 1.613281 0.0078125 1.410156 0.046875 1.171875 0.046875 C 0.910156 0.046875 0.71875 -0.0195312 0.59375 -0.15625 C 0.476562 -0.289062 0.421875 -0.488281 0.421875 -0.75 L 0.421875 -1.921875 L 0.09375 -1.921875 L 0.09375 -2.203125 L 0.46875 -2.421875 L 0.65625 -2.921875 L 1.078125 -2.921875 L 1.078125 -2.40625 L 1.75 -2.40625 L 1.75 -1.921875 L 1.078125 -1.921875 L 1.078125 -0.75 C 1.078125 -0.65625 1.101562 -0.585938 1.15625 -0.546875 C 1.207031 -0.503906 1.273438 -0.484375 1.359375 -0.484375 Z M 1.359375 -0.484375 "/></g></g></g><g fill="#ffffff" fill-opacity="1"><g transform="translate(2.880758, 4.977149)"><g><path d="M 1.34375 -1.984375 C 1.207031 -1.984375 1.097656 -1.9375 1.015625 -1.84375 C 0.929688 -1.757812 0.882812 -1.640625 0.875 -1.484375 L 1.8125 -1.484375 C 1.800781 -1.640625 1.753906 -1.757812 1.671875 -1.84375 C 1.585938 -1.9375 1.476562 -1.984375 1.34375 -1.984375 Z M 1.4375 0.046875 C 1.050781 0.046875 0.75 -0.0546875 0.53125 -0.265625 C 0.3125 -0.484375 0.203125 -0.789062 0.203125 -1.1875 C 0.203125 -1.59375 0.300781 -1.90625 0.5 -2.125 C 0.707031 -2.34375 0.988281 -2.453125 1.34375 -2.453125 C 1.6875 -2.453125 1.953125 -2.351562 2.140625 -2.15625 C 2.328125 -1.96875 2.421875 -1.703125 2.421875 -1.359375 L 2.421875 -1.046875 L 0.859375 -1.046875 C 0.867188 -0.859375 0.925781 -0.710938 1.03125 -0.609375 C 1.132812 -0.503906 1.28125 -0.453125 1.46875 -0.453125 C 1.613281 -0.453125 1.75 -0.460938 1.875 -0.484375 C 2.007812 -0.515625 2.144531 -0.566406 2.28125 -0.640625 L 2.28125 -0.125 C 2.164062 -0.0703125 2.039062 -0.03125 1.90625 0 C 1.78125 0.03125 1.625 0.046875 1.4375 0.046875 Z M 1.4375 0.046875 "/></g></g></g><g fill="#ffffff" fill-opacity="1"><g transform="translate(5.493817, 4.977149)"><g><path d="M 0.84375 -1.234375 L 0.0625 -2.40625 L 0.8125 -2.40625 L 1.28125 -1.640625 L 1.75 -2.40625 L 2.5 -2.40625 L 1.71875 -1.234375 L 2.53125 0 L 1.78125 0 L 1.28125 -0.828125 L 0.765625 0 L 0.015625 0 Z M 0.84375 -1.234375 "/></g></g></g><g fill="#ffffff" fill-opacity="1"><g transform="translate(8.050727, 4.977149)"><g><path d="M 1.359375 -0.484375 C 1.472656 -0.484375 1.613281 -0.507812 1.78125 -0.5625 L 1.78125 -0.0625 C 1.613281 0.0078125 1.410156 0.046875 1.171875 0.046875 C 0.910156 0.046875 0.71875 -0.0195312 0.59375 -0.15625 C 0.476562 -0.289062 0.421875 -0.488281 0.421875 -0.75 L 0.421875 -1.921875 L 0.09375 -1.921875 L 0.09375 -2.203125 L 0.46875 -2.421875 L 0.65625 -2.921875 L 1.078125 -2.921875 L 1.078125 -2.40625 L 1.75 -2.40625 L 1.75 -1.921875 L 1.078125 -1.921875 L 1.078125 -0.75 C 1.078125 -0.65625 1.101562 -0.585938 1.15625 -0.546875 C 1.207031 -0.503906 1.273438 -0.484375 1.359375 -0.484375 Z M 1.359375 -0.484375 "/></g></g></g><g clip-path="url(#117dc31314)"><g fill="#ffffff" fill-opacity="1"><g transform="translate(9.970571, 4.977149)"><g><path d="M 0.875 -1.21875 C 0.875 -0.976562 0.910156 -0.796875 0.984375 -0.671875 C 1.066406 -0.546875 1.195312 -0.484375 1.375 -0.484375 C 1.550781 -0.484375 1.675781 -0.539062 1.75 -0.65625 C 1.820312 -0.78125 1.859375 -0.96875 1.859375 -1.21875 C 1.859375 -1.445312 1.816406 -1.617188 1.734375 -1.734375 C 1.660156 -1.859375 1.535156 -1.921875 1.359375 -1.921875 C 1.191406 -1.921875 1.066406 -1.863281 0.984375 -1.75 C 0.910156 -1.632812 0.875 -1.457031 0.875 -1.21875 Z M 2.546875 -1.21875 C 2.546875 -0.820312 2.441406 -0.507812 2.234375 -0.28125 C 2.023438 -0.0625 1.734375 0.046875 1.359375 0.046875 C 1.128906 0.046875 0.925781 -0.00390625 0.75 -0.109375 C 0.570312 -0.210938 0.4375 -0.359375 0.34375 -0.546875 C 0.25 -0.734375 0.203125 -0.957031 0.203125 -1.21875 C 0.203125 -1.601562 0.300781 -1.90625 0.5 -2.125 C 0.707031 -2.34375 1 -2.453125 1.375 -2.453125 C 1.601562 -2.453125 1.804688 -2.398438 1.984375 -2.296875 C 2.160156 -2.203125 2.296875 -2.0625 2.390625 -1.875 C 2.492188 -1.6875 2.546875 -1.46875 2.546875 -1.21875 Z M 2.546875 -1.21875 "/></g></g></g></g></g></g></svg>